<svg width="150" height="150" fill="none" xmlns="http://www.w3.org/2000/svg"><path d="M130.822 85.065A23.128 23.128 0 00133.5 74.25c0-9.931-6.239-18.386-15.001-21.717l.001-.033C118.5 35.103 104.397 21 87 21c-14.676 0-26.971 10.052-30.47 23.636A22.473 22.473 0 0049.5 43.5c-11.538 0-21.035 8.69-22.335 19.878C19.359 65.029 13.5 71.954 13.5 80.25c0 9.526 7.724 17.25 17.25 17.25.265 0 .528-.018.789-.033-.006.263-.039.519-.039.783 0 16.983 13.767 30.75 30.75 30.75 9.656 0 18.263-4.458 23.901-11.421C89.418 120.917 93.96 123 99 123c6.975 0 13.011-3.975 15.999-9.777 1.578.503 3.257.777 5.001.777 9.113 0 16.5-7.387 16.5-16.5 0-4.966-2.205-9.41-5.678-12.435z" fill="#A6E6FF"/><path d="M77.25 111.75c19.054 0 34.5-3.022 34.5-6.75s-15.446-6.75-34.5-6.75c-19.054 0-34.5 3.022-34.5 6.75s15.446 6.75 34.5 6.75z" fill="#88AE45"/><path d="M26.25 73.5h-15a.75.75 0 010-1.5h15a.75.75 0 010 1.5zm4.5 0h-1.5a.75.75 0 010-1.5h1.5a.75.75 0 010 1.5zm7.486 3H24.75a.75.75 0 010-1.5h13.486a.75.75 0 010 1.5zm-16.486 0h-1.5a.75.75 0 010-1.5h1.5a.75.75 0 010 1.5zm-4.5 0h-3a.75.75 0 010-1.5h3a.75.75 0 010 1.5zm9 3h-3a.75.75 0 010-1.5h3a.75.75 0 010 1.5zm4.5-13.5h-1.5a.75.75 0 000 1.5h1.5a.75.75 0 000-1.5zm0 3h-7.5a.75.75 0 000 1.5h7.5a.75.75 0 000-1.5zm7.5 3h-4.5a.75.75 0 000 1.5h4.5a.75.75 0 000-1.5zm91.5 21h-15a.75.75 0 010-1.5h15a.75.75 0 010 1.5zm6 0h-3a.75.75 0 010-1.5h3a.75.75 0 010 1.5zm7.5 3h-15a.75.75 0 010-1.5h15a.75.75 0 010 1.5zm-18 0h-1.5a.75.75 0 010-1.5h1.5a.75.75 0 010 1.5zm-4.545 0h-2.955a.75.75 0 010-1.5h2.955a.75.75 0 010 1.5zm13.545-6h-7.5a.75.75 0 010-1.5h7.5a.75.75 0 010 1.5zm-4.5 9h-3a.75.75 0 010-1.5h3a.75.75 0 010 1.5z" fill="#fff"/><path d="M48.75 53.25V54h4.5v-.75h8.25a6.75 6.75 0 006.75-6.75c0-3.5-2.673-6.343-6.083-6.682.033-.272.083-.537.083-.818a6.75 6.75 0 00-6.75-6.75c-2.157 0-4.054 1.029-5.29 2.604-.21-3.954-3.453-7.104-7.46-7.104a7.5 7.5 0 00-7.5 7.5c0 .669.115 1.305.28 1.923-.962-1.166-2.401-1.923-4.03-1.923-2.672 0-4.851 2.002-5.183 4.583-.271-.033-.537-.083-.817-.083a6.75 6.75 0 000 13.5h23.25z" fill="#FDFCEF"/><path d="M42.75 27c-4.55 0-8.25 3.7-8.25 8.25v.07a5.9 5.9 0 00-3-.82c-2.747 0-5.116 1.892-5.787 4.508A3.329 3.329 0 0025.5 39c-4.136 0-7.5 3.364-7.5 7.5s3.364 7.5 7.5 7.5h23.25a.75.75 0 000-1.5H25.5c-3.309 0-6-2.691-6-6s2.691-6 6-6c.175 0 .345.026.515.048l.211.029a.754.754 0 00.835-.65C27.348 37.687 29.256 36 31.5 36c1.328 0 2.584.602 3.452 1.65a.754.754 0 00.92.189.75.75 0 00.382-.86c-.174-.651-.254-1.2-.254-1.729a6.758 6.758 0 016.75-6.75c3.572 0 6.52 2.808 6.711 6.395a.75.75 0 001.34.422C51.956 33.845 53.667 33 55.5 33c3.309 0 6 2.691 6 6 0 .175-.026.345-.048.514l-.029.212a.751.751 0 00.67.837c3.084.307 5.407 2.86 5.407 5.937 0 3.309-2.691 6-6 6h-8.25a.75.75 0 000 1.5h8.25c4.135 0 7.5-3.364 7.5-7.5a7.45 7.45 0 00-6.005-7.316C63 39.123 63 39.063 63 39c0-4.136-3.364-7.5-7.5-7.5-1.764 0-3.44.624-4.775 1.746C49.828 29.64 46.583 27 42.75 27z" fill="#472B29"/><path d="M40.5 37.5c-2.105 0-3.913 1.498-4.37 3.511a3.515 3.515 0 00-1.818-.511 3.565 3.565 0 00-3.529 3.102 3.945 3.945 0 00-.878-.102c-2.293 0-4.216 1.8-4.377 4.098a.378.378 0 00.349.402h.027c.195 0 .36-.151.373-.348.133-1.907 1.726-3.402 3.628-3.402.344 0 .705.063 1.107.19a.327.327 0 00.101.016.39.39 0 00.387-.393 2.815 2.815 0 012.813-2.813 2.8 2.8 0 011.846.71.38.38 0 00.248.094.347.347 0 00.139-.029.37.37 0 00.233-.317c.155-1.94 1.789-3.458 3.721-3.458.312 0 .638.051 1.023.16a.376.376 0 00.205-.721A4.41 4.41 0 0040.5 37.5zm20.825 2.25c-1.99 0-3.763 1.346-4.312 3.273a.375.375 0 10.722.204c.458-1.605 1.934-2.727 3.59-2.727.175 0 .344.021.512.044a.377.377 0 00.422-.321.373.373 0 00-.321-.422 4.594 4.594 0 00-.614-.051z" fill="#472B29"/><path d="M126.75 80.25H132c2.9 0 5.25-2.35 5.25-5.25 0-2.671-2.002-4.851-4.583-5.183.042-.268.083-.536.083-.817a5.25 5.25 0 00-5.25-5.25c-1.548 0-2.925.683-3.885 1.748a5.997 5.997 0 00-11.865 1.252c0 .287.045.561.084.837a3.709 3.709 0 00-2.334-.837 3.745 3.745 0 00-3.683 3.082 5.236 5.236 0 00-.817-.082 5.25 5.25 0 000 10.5h11.25V81h10.5v-.75z" fill="#FDFCEF"/><path d="M129.375 73.5a.375.375 0 01-.375-.375 3.331 3.331 0 013.327-3.327c.051.013 1.105-.002 1.866.204a.375.375 0 01-.195.723c-.666-.18-1.65-.18-1.669-.177a2.581 2.581 0 00-2.579 2.577.375.375 0 01-.375.375zM119.25 81a.75.75 0 100-1.5.75.75 0 000 1.5z" fill="#472B29"/><path d="M132 81h-5.25a.75.75 0 010-1.5H132c2.481 0 4.5-2.019 4.5-4.5 0-2.244-1.687-4.152-3.927-4.439a.753.753 0 01-.645-.859c.035-.231.072-.462.072-.702 0-2.481-2.019-4.5-4.5-4.5-1.275 0-2.457.532-3.329 1.5a.75.75 0 01-1.29-.347 5.27 5.27 0 00-5.131-4.153 5.256 5.256 0 00-5.25 5.25c0 .215.032.42.062.627.043.305-.095.657-.363.81-.269.153-.595.177-.835-.015a2.952 2.952 0 00-1.864-.672 2.99 2.99 0 00-2.944 2.466.747.747 0 01-.854.608c-.231-.037-.462-.074-.702-.074a4.505 4.505 0 00-4.5 4.5c0 2.481 2.019 4.5 4.5 4.5h11.25a.75.75 0 010 1.5H105c-3.309 0-6-2.691-6-6s2.691-6 6-6c.089 0 .174.003.261.009A4.489 4.489 0 01109.5 66a4.36 4.36 0 011.517.27A6.758 6.758 0 01117.75 60c2.747 0 5.199 1.69 6.229 4.161A5.973 5.973 0 01127.5 63a6.006 6.006 0 015.994 6.213c2.615.672 4.506 3.04 4.506 5.787 0 3.309-2.691 6-6 6z" fill="#472B29"/><path d="M123.75 79.5h-1.5a.75.75 0 000 1.5h1.5a.75.75 0 000-1.5z" fill="#472B29"/><path d="M89.28 102.45c-.686 0-1.194-.375-1.221-.711l-1.512-18.326.002-2.863h14.401v2.95l-1.508 18.239c-.028.336-.535.711-1.222.711h-8.94z" fill="#CBC9BC"/><path d="M99.9 81.6v1.814l-1.482 17.961a.743.743 0 01-.198.026h-8.94a.734.734 0 01-.198-.026L87.6 83.413V81.6h12.3zm2.1-2.1H85.5v4l1.512 18.326c.078.941 1.07 1.674 2.268 1.674h8.939c1.198 0 2.191-.733 2.267-1.675L102 83.5v-4z" fill="#472B29"/><path d="M93.75 103.5a.75.75 0 01-.75-.75v-7.5a.75.75 0 011.5 0v7.5a.75.75 0 01-.75.75zm0-10.5a.75.75 0 01-.75-.75v-4.5a.75.75 0 011.5 0v4.5a.75.75 0 01-.75.75z" fill="#472B29"/><path d="M80.25 69v15.447c0 1.41 1.344 2.553 3 2.553s3-1.143 3-2.553V69h-6z" fill="#FABF82"/><path d="M83.25 87.75c-2.067 0-3.75-1.482-3.75-3.303V68.25H87v16.197c0 1.821-1.683 3.303-3.75 3.303zm-2.25-18v14.697c0 .995 1.01 1.803 2.25 1.803s2.25-.808 2.25-1.803V69.75H81z" fill="#472B29"/><path d="M101.25 68.25v16.09c0 1.469 1.344 2.66 3 2.66s3-1.191 3-2.66V68.25h-6z" fill="#FABF82"/><path d="M104.25 87.75c-2.067 0-3.75-1.53-3.75-3.41V67.5h7.5v16.84c0 1.88-1.683 3.41-3.75 3.41zM102 69v15.34c0 1.053 1.01 1.91 2.25 1.91s2.25-.856 2.25-1.91V69H102z" fill="#472B29"/><path d="M86.063 84.45a1.014 1.014 0 01-1.013-1.013V70.95h-4.5v-2.013c0-6.484 5.469-9.387 10.887-9.387h6.124c6.054 0 9.387 3.335 9.387 9.387v2.013h-4.5v12.487c0 .559-.454 1.013-1.012 1.013H86.062z" fill="#EE3E54"/><path d="M97.563 60.6c5.454 0 8.337 2.883 8.337 8.339v.961h-4.5V72l.038 11.4-15.338.037V69.9h-4.5v-.963c0-5.76 4.941-8.338 9.837-8.338h6.126m0-2.099h-6.124c-6.594 0-11.939 3.844-11.939 10.437V72H84v11.438c0 1.138.924 2.062 2.063 2.062h15.375a2.063 2.063 0 002.062-2.063V72h4.5v-3.063c0-6.593-3.844-10.437-10.437-10.437z" fill="#472B29"/><path d="M93.822 62.528c-1 0-1.772-.266-2.288-.788-.787-.796-.783-1.975-.783-1.986v-4.569h5.999v4.556c.001.055.054 1.227-.69 2.011-.492.515-1.243.776-2.238.776z" fill="#FABF82"/><path d="M95.997 55.935v3.806l.002.05.001.028c0 .009.027.882-.493 1.425-.343.354-.908.534-1.685.534-2.014 0-2.319-1.266-2.322-2.037v-3.806h4.497zm1.5-1.5H90v5.306s-.081 3.537 3.822 3.537 3.675-3.537 3.675-3.537v-5.306z" fill="#472B29"/><path d="M93.708 57.45a7.894 7.894 0 01-5.66-2.372 7.891 7.891 0 01-2.288-5.695c.061-4.185 3.646-7.772 7.831-7.832 4.5 0 8.067 3.566 8.067 7.949-.002 4.383-3.567 7.95-7.95 7.95z" fill="#FABF82"/><path d="M93.708 42.6c3.804 0 6.9 3.094 6.9 6.9 0 3.806-3.096 6.9-6.9 6.9a6.853 6.853 0 01-4.912-2.06 6.851 6.851 0 01-1.988-4.942c.052-3.632 3.165-6.744 6.796-6.797l.104-.001zm0-2.1h-.132c-4.776.069-8.797 4.09-8.866 8.867-.074 5.025 3.99 9.133 8.998 9.133 4.963 0 9-4.035 9-9s-4.037-9-9-9z" fill="#472B29"/><path d="M93.556 39.005c4.174.301 7.255 3.42 7.255 5.698l-5.09.271c-3.785.05-11.178.442-10.119-4.828 3.087.428 4.089-1.246 7.954-1.142z" fill="#472B29"/><path d="M93.62 46.05c-2.953 0-6.565-.258-8.25-2.28-.839-1.005-1.106-2.295-.799-3.831l.195-.969.98.135c1.332.184 2.19-.085 3.275-.426 1.163-.366 2.482-.78 4.564-.724l.047.003c4.71.34 8.227 3.843 8.227 6.745v.996l-6.697.334c-.48.008-1.001.017-1.543.017zm-7.066-4.783c.028.463.168.845.431 1.159 1.352 1.621 5.607 1.551 8.144 1.508l.578-.01 3.81-.203c-.728-1.59-3.031-3.444-6.013-3.668-1.703-.043-2.802.299-3.854.63-.915.288-1.854.584-3.072.584h-.023z" fill="#472B29"/><path d="M56.28 102.45c-.686 0-1.194-.375-1.221-.711l-1.512-18.326.002-2.863H67.95v2.95l-1.508 18.239c-.028.336-.535.711-1.222.711h-8.94z" fill="#FABF82"/><path d="M66.9 81.6v1.814l-1.482 17.961a.743.743 0 01-.198.026h-8.94a.734.734 0 01-.198-.026L54.6 83.413V81.6h12.3zm2.1-2.1H52.5v4l1.512 18.326c.078.941 1.07 1.674 2.268 1.674h8.939c1.198 0 2.191-.733 2.268-1.675L69 83.5v-4z" fill="#472B29"/><path d="M60.75 103.5a.75.75 0 01-.75-.75v-7.5a.75.75 0 011.5 0v7.5a.75.75 0 01-.75.75z" fill="#472B29"/><path d="M47.25 69.72v14.829c0 1.353 1.344 2.451 3 2.451s3-1.097 3-2.451V69.72h-6z" fill="#FABF82"/><path d="M50.25 87.75c-2.067 0-3.75-1.436-3.75-3.201V68.97H54v15.579c0 1.765-1.683 3.201-3.75 3.201zM48 70.47v14.079c0 .938 1.01 1.701 2.25 1.701s2.25-.763 2.25-1.701V70.47H48z" fill="#472B29"/><path d="M68.25 69v15.447c0 1.41 1.344 2.553 3 2.553s3-1.143 3-2.553V69h-6z" fill="#FABF82"/><path d="M71.25 87.75c-2.067 0-3.75-1.482-3.75-3.303V68.25H75v16.197c0 1.821-1.683 3.303-3.75 3.303zm-2.25-18v14.697c0 .995 1.01 1.803 2.25 1.803s2.25-.808 2.25-1.803V69.75H69z" fill="#472B29"/><path d="M50.58 91.95a1.17 1.17 0 01-.897-.41 1.179 1.179 0 01-.279-.945l2.728-19.1-4.563-3.043c.414-5.764 7.286-8.9 10.87-8.9h6.124c2.983.153 8.938 4.06 9.364 8.904l-4.56 3.038 2.729 19.102c.05.346-.05.68-.279.944-.23.264-.547.41-.897.41H50.58z" fill="#FBCD59"/><path d="M64.503 60.6c2.632.17 7.51 3.452 8.29 7.347l-3.459 2.305-1.1.736.187 1.309 2.635 18.446a.126.126 0 01-.031.109c-.042.048-.087.048-.105.048H50.58c-.017 0-.063 0-.103-.048a.127.127 0 01-.032-.11l2.636-18.445.187-1.31-1.101-.734-3.474-2.317c.786-4.578 6.522-7.336 9.747-7.336h6.063zm.06-2.1h-6.125C54 58.5 46.5 62.407 46.5 69l4.5 3-2.636 18.445A2.238 2.238 0 0050.58 93h20.34a2.238 2.238 0 002.215-2.555L70.5 72l4.5-3c0-5.764-6.75-10.313-10.437-10.5z" fill="#472B29"/><path d="M60.822 62.528c-1 0-1.772-.266-2.288-.788-.787-.796-.782-1.975-.782-1.986v-4.569h5.998v4.556c.002.055.054 1.227-.69 2.011-.492.515-1.244.776-2.238.776z" fill="#FABF82"/><path d="M62.997 55.935v3.806l.002.05.001.028c0 .009.027.882-.493 1.425-.343.354-.908.534-1.685.534-2.015 0-2.319-1.266-2.322-2.037v-3.806h4.497zm1.5-1.5H57v5.306s-.081 3.537 3.822 3.537 3.675-3.537 3.675-3.537v-5.306z" fill="#472B29"/><path d="M60.708 57.45a7.894 7.894 0 01-5.66-2.372 7.891 7.891 0 01-2.288-5.695c.061-4.185 3.646-7.772 7.831-7.832 4.5 0 8.067 3.566 8.067 7.949-.002 4.383-3.567 7.95-7.95 7.95z" fill="#FABF82"/><path d="M60.708 42.6c3.804 0 6.9 3.094 6.9 6.9 0 3.806-3.096 6.9-6.9 6.9a6.853 6.853 0 01-4.913-2.06 6.851 6.851 0 01-1.987-4.942c.053-3.632 3.165-6.744 6.797-6.797l.103-.001zm0-2.1h-.132c-4.776.069-8.797 4.09-8.867 8.867-.073 5.025 3.99 9.133 8.999 9.133 4.963 0 9-4.035 9-9s-4.037-9-9-9z" fill="#472B29"/><path d="M68.68 45.75c-.994-3.519-4.249-6.096-8.095-6.04-3.666.052-6.842 2.636-7.839 6.04H68.68z" fill="#472B29"/><path d="M68.682 46.8H52.748a1.05 1.05 0 01-1.008-1.345c1.156-3.944 4.786-6.738 8.831-6.795a9.336 9.336 0 019.122 6.805 1.047 1.047 0 01-1.011 1.335zm-14.384-2.1h12.848a7.22 7.22 0 00-6.544-3.94c-2.652.037-5.076 1.6-6.303 3.94z" fill="#472B29"/><path d="M47.25 54.75c-3-3-3.432-10.624 6-10.5v1.5s-4.5 1.5-6 9z" fill="#472B29"/><path d="M47.25 55.8a1.05 1.05 0 01-.742-.307c-1.786-1.787-2.947-5.129-1.709-8.063.68-1.612 2.611-4.314 8.465-4.23a1.05 1.05 0 011.036 1.05v1.5c0 .452-.29.853-.718.996-.152.054-3.956 1.476-5.303 8.21a1.053 1.053 0 01-1.029.844zm4.48-10.444c-2.578.238-4.294 1.224-4.997 2.89-.531 1.255-.395 2.721.099 3.951 1.328-4.037 3.538-5.982 4.898-6.842zm22.52 9.394c3-3 3.432-10.625-6-10.5v1.5s4.5 1.5 6 9z" fill="#472B29"/><path d="M74.25 55.8a1.053 1.053 0 01-1.03-.844c-1.347-6.734-5.151-8.156-5.312-8.213a1.064 1.064 0 01-.708-.993v-1.5a1.05 1.05 0 011.037-1.05c5.787-.074 7.785 2.617 8.464 4.23 1.239 2.934.078 6.276-1.708 8.063-.2.199-.468.307-.743.307zm-4.48-10.444c1.362.859 3.57 2.804 4.897 6.843.495-1.23.63-2.696.099-3.951-.704-1.668-2.418-2.654-4.997-2.892zm3.984 67.109h-.016c-4.465-.088-8.737-.34-12.7-.751a.751.751 0 01-.669-.824.741.741 0 01.824-.669c3.92.407 8.152.657 12.574.744a.75.75 0 01-.013 1.5zm6.992 0a.749.749 0 01-.75-.735.751.751 0 01.736-.765c5.233-.103 10.35-.447 14.797-.996a.75.75 0 01.183 1.488c-4.497.555-9.666.903-14.95 1.007l-.016.001zm19.608-1.702a.748.748 0 01-.13-1.488c4.054-.716 7.179-1.612 9.034-2.592a.752.752 0 01.701 1.328c-1.992 1.051-5.268 1.999-9.474 2.741a.965.965 0 01-.131.011zm11.396-5.013a.75.75 0 01-.75-.75c0-.824-1.833-2.231-6.999-3.492a.749.749 0 11.356-1.457c5.479 1.337 8.143 2.955 8.143 4.949a.75.75 0 01-.75.75zm-40.881-6.635a.75.75 0 01-.027-1.5c4.113-.15 8.44-.152 12.564-.008a.75.75 0 01.723.775.747.747 0 01-.776.723c-4.087-.142-8.378-.14-12.457.009l-.027.001zM42.75 105.75A.75.75 0 0142 105c0-1.996 2.673-3.618 8.173-4.956a.752.752 0 01.907.552.749.749 0 01-.552.906C45.34 102.764 43.5 104.175 43.5 105a.75.75 0 01-.75.75zm12.65 5.224a.823.823 0 01-.12-.009c-4.596-.736-8.201-1.702-10.421-2.793a.75.75 0 01.66-1.347c2.09 1.026 5.546 1.946 9.998 2.658a.751.751 0 01-.117 1.491z" fill="#472B29"/></svg>