<svg width="150" height="150" fill="none" xmlns="http://www.w3.org/2000/svg"><path d="M130.822 85.065A23.128 23.128 0 00133.5 74.25c0-9.931-6.239-18.386-15.001-21.717l.001-.033C118.5 35.103 104.397 21 87 21c-14.676 0-26.971 10.052-30.47 23.636A22.473 22.473 0 0049.5 43.5c-11.538 0-21.035 8.69-22.335 19.878C19.359 65.029 13.5 71.954 13.5 80.25c0 9.526 7.724 17.25 17.25 17.25.265 0 .528-.018.789-.033-.006.263-.039.519-.039.783 0 16.983 13.767 30.75 30.75 30.75 9.656 0 18.263-4.458 23.901-11.421C89.418 120.917 93.96 123 99 123c6.975 0 13.011-3.975 15.999-9.777 1.578.503 3.257.777 5.001.777 9.113 0 16.5-7.387 16.5-16.5 0-4.966-2.205-9.41-5.678-12.435z" fill="#A6E6FF"/><path d="M119.25 102.75v.75h4.5v-.75H132a6.75 6.75 0 006.75-6.75c0-3.5-2.673-6.344-6.083-6.683.034-.271.083-.536.083-.817a6.75 6.75 0 00-6.75-6.75c-2.157 0-4.055 1.029-5.291 2.604-.209-3.954-3.452-7.104-7.459-7.104a7.5 7.5 0 00-7.5 7.5c0 .669.115 1.305.28 1.923-.963-1.166-2.401-1.923-4.03-1.923-2.671 0-4.851 2.002-5.183 4.582-.271-.032-.536-.082-.817-.082a6.75 6.75 0 000 13.5h23.25z" fill="#FDFCEF"/><path d="M113.25 76.5c-4.549 0-8.25 3.7-8.25 8.25v.07a5.9 5.9 0 00-3-.82c-2.746 0-5.117 1.891-5.787 4.507A3.329 3.329 0 0096 88.5c-4.135 0-7.5 3.365-7.5 7.5s3.365 7.5 7.5 7.5h23.25a.75.75 0 000-1.5H96c-3.309 0-6-2.691-6-6s2.691-6 6-6c.175 0 .345.025.514.048l.212.028a.754.754 0 00.835-.65c.287-2.239 2.195-3.926 4.439-3.926 1.328 0 2.585.602 3.452 1.65a.753.753 0 00.921.189.75.75 0 00.38-.86c-.172-.652-.253-1.201-.253-1.729a6.758 6.758 0 016.75-6.75c3.572 0 6.52 2.808 6.711 6.394a.75.75 0 001.339.423c1.157-1.472 2.868-2.317 4.7-2.317 3.309 0 6 2.691 6 6 0 .175-.025.345-.048.514l-.029.212a.752.752 0 00.669.837c3.084.308 5.408 2.86 5.408 5.937 0 3.309-2.691 6-6 6h-8.25a.75.75 0 000 1.5H132c4.135 0 7.5-3.365 7.5-7.5a7.45 7.45 0 00-6.004-7.316c.003-.061.004-.123.004-.184 0-4.135-3.365-7.5-7.5-7.5a7.396 7.396 0 00-4.774 1.746c-.897-3.606-4.143-6.246-7.976-6.246z" fill="#472B29"/><path d="M111 87c-2.105 0-3.914 1.499-4.37 3.511a3.514 3.514 0 00-1.818-.511 3.565 3.565 0 00-3.529 3.102 3.945 3.945 0 00-.876-.102c-2.293 0-4.216 1.8-4.377 4.098a.376.376 0 00.346.402h.027c.195 0 .36-.151.374-.348.133-1.906 1.727-3.402 3.628-3.402.344 0 .705.063 1.107.19a.323.323 0 00.101.016.39.39 0 00.387-.393 2.815 2.815 0 012.812-2.813 2.8 2.8 0 011.847.71c.07.061.159.094.247.094a.349.349 0 00.14-.029.37.37 0 00.232-.318c.156-1.939 1.79-3.457 3.722-3.457.312 0 .637.051 1.023.16.034.011.07.016.105.016a.376.376 0 00.1-.737A4.408 4.408 0 00111 87zm20.824 2.25c-1.989 0-3.762 1.346-4.311 3.273a.375.375 0 10.722.204c.457-1.605 1.933-2.727 3.589-2.727.176 0 .345.021.513.043a.377.377 0 00.422-.321.374.374 0 00-.321-.421 4.595 4.595 0 00-.614-.051z" fill="#472B29"/><path d="M23.25 76.5h-15a.75.75 0 010-1.5h15a.75.75 0 010 1.5zm4.5 0h-1.5a.75.75 0 010-1.5h1.5a.75.75 0 010 1.5zm7.486 3H21.75a.75.75 0 010-1.5h13.486a.75.75 0 010 1.5zm-16.486 0h-1.5a.75.75 0 010-1.5h1.5a.75.75 0 010 1.5zm-4.5 0h-3a.75.75 0 010-1.5h3a.75.75 0 010 1.5zm9 3h-3a.75.75 0 010-1.5h3a.75.75 0 010 1.5zm4.5-13.5h-1.5a.75.75 0 000 1.5h1.5a.75.75 0 000-1.5zm0 3h-7.5a.75.75 0 000 1.5h7.5a.75.75 0 000-1.5zm7.5 3h-4.5a.75.75 0 000 1.5h4.5a.75.75 0 000-1.5zm73.5-39h-15a.75.75 0 010-1.5h15a.75.75 0 010 1.5zm6 0h-3a.75.75 0 010-1.5h3a.75.75 0 010 1.5zm7.5 3h-15a.75.75 0 010-1.5h15a.75.75 0 010 1.5zm-18 0h-1.5a.75.75 0 010-1.5h1.5a.75.75 0 010 1.5zm-4.545 0H96.75a.75.75 0 010-1.5h2.955a.75.75 0 010 1.5zm13.545-6h-7.5a.75.75 0 010-1.5h7.5a.75.75 0 010 1.5zm-4.5 9h-3a.75.75 0 010-1.5h3a.75.75 0 010 1.5z" fill="#fff"/><path d="M60.938 82.688a.753.753 0 01-.532-.22L45.22 67.282a.75.75 0 011.06-1.06l15.188 15.187a.75.75 0 01-.53 1.28z" fill="#472B29"/><path d="M53.25 75a.75.75 0 01-.75-.75v-10.5a.75.75 0 011.5 0v10.5a.75.75 0 01-.75.75zm40.5 7.5a.75.75 0 01-.531-1.28l15-15a.75.75 0 011.06 1.061l-15 15a.747.747 0 01-.529.219z" fill="#472B29"/><path d="M101.25 75a.75.75 0 01-.75-.75v-10.5a.75.75 0 011.5 0v10.5a.75.75 0 01-.75.75z" fill="#472B29"/><path d="M78 69.75c-11.993 0-21.75 9.757-21.75 21.75s9.757 21.75 21.75 21.75 21.75-9.757 21.75-21.75S89.993 69.75 78 69.75z" fill="#FDFCEF"/><path d="M78 71.1c11.249 0 20.4 9.151 20.4 20.4 0 11.249-9.151 20.4-20.4 20.4-11.249 0-20.4-9.151-20.4-20.4 0-11.249 9.151-20.4 20.4-20.4zm0-2.1c-12.426 0-22.5 10.074-22.5 22.5S65.574 114 78 114s22.5-10.074 22.5-22.5S90.426 69 78 69z" fill="#472B29"/><path d="M78 42.75c-8.685 0-15.75 7.065-15.75 15.75 0 8.685 7.065 15.75 15.75 15.75 8.685 0 15.75-7.065 15.75-15.75 0-8.685-7.065-15.75-15.75-15.75z" fill="#FDFCEF" stroke="#FDFCEF"/><path d="M78 44.1c7.94 0 14.4 6.46 14.4 14.4S85.94 72.9 78 72.9s-14.4-6.46-14.4-14.4S70.06 44.1 78 44.1zm0-2.1c-9.112 0-16.5 7.388-16.5 16.5S68.888 75 78 75s16.5-7.388 16.5-16.5S87.112 42 78 42z" fill="#472B29"/><path d="M72 55.5a1.5 1.5 0 100 3 1.5 1.5 0 000-3zm12 0a1.5 1.5 0 100 3 1.5 1.5 0 000-3z" fill="#472B29"/><path d="M69.75 72.75V78c0 1.156-.299 1.917-.921 3.396-.877 2.082-2.079 4.933-2.079 9.916v.938h7.5v-.938c0-3.469.723-5.186 1.49-7.004.709-1.684 1.51-3.589 1.51-6.308v-5.25h-7.5z" fill="#D82745"/><path d="M76.5 73.5V78c0 2.57-.737 4.32-1.452 6.016-.797 1.89-1.548 3.675-1.548 7.296v.188h-6v-.188c0-4.832 1.119-7.489 2.019-9.626.591-1.402.981-2.327.981-3.686v-4.5h6zM78 72h-9v6c0 1.013-.264 1.683-.862 3.103C67.236 83.245 66 86.177 66 91.314v.937c0 .414.336.75.75.75h7.5a.75.75 0 00.75-.75v-.938c0-3.317.663-4.892 1.431-6.715C77.166 82.851 78 80.874 78 78v-6z" fill="#472B29"/><path d="M89.25 77.25h-22.5a1.5 1.5 0 01-1.5-1.5v-4.5a1.5 1.5 0 011.5-1.5h22.5a1.5 1.5 0 011.5 1.5v4.5a1.5 1.5 0 01-1.5 1.5z" fill="#EE3E54"/><path d="M89.25 78h-22.5c-1.24 0-2.25-1.01-2.25-2.25v-4.5c0-1.24 1.01-2.25 2.25-2.25h22.5c1.24 0 2.25 1.01 2.25 2.25v4.5c0 1.24-1.01 2.25-2.25 2.25zm-22.5-7.5a.751.751 0 00-.75.75v4.5c0 .412.336.75.75.75h22.5c.414 0 .75-.338.75-.75v-4.5a.751.751 0 00-.75-.75h-22.5z" fill="#472B29"/><path d="M86.25 33.75h-16.5a3 3 0 00-3 3v9.498a3 3 0 003 3h16.5a3 3 0 003-3V36.75a3 3 0 00-3-3z" fill="#678C26"/><path d="M86.25 49.998h-16.5a3.754 3.754 0 01-3.75-3.75V36.75A3.754 3.754 0 0169.75 33h16.5A3.754 3.754 0 0190 36.75v9.498a3.754 3.754 0 01-3.75 3.75zM69.75 34.5c-1.24 0-2.25 1.01-2.25 2.25v9.498c0 1.24 1.01 2.25 2.25 2.25h16.5c1.24 0 2.25-1.01 2.25-2.25V36.75c0-1.24-1.01-2.25-2.25-2.25h-16.5z" fill="#472B29"/><path d="M92.25 44.25h-28.5a3 3 0 100 6h28.5a3 3 0 100-6z" fill="#88AE45"/><path d="M92.25 51h-28.5A3.754 3.754 0 0160 47.25a3.754 3.754 0 013.75-3.75h28.5A3.754 3.754 0 0196 47.25 3.754 3.754 0 0192.25 51zm-28.5-6c-1.24 0-2.25 1.01-2.25 2.25s1.01 2.25 2.25 2.25h28.5c1.24 0 2.25-1.01 2.25-2.25S93.49 45 92.25 45h-28.5zm16.5-3.375h-13.5a.563.563 0 010-1.125h13.5a.563.563 0 010 1.125zm8.813 0H84.75a.563.563 0 010-1.125h4.313a.563.563 0 010 1.125z" fill="#472B29"/><path d="M86.438 62.25s-6.919 3.188-9.188 3.188a3.193 3.193 0 01-3.188-3.188 3.193 3.193 0 013.188-3.188c2.27 0 9.188 3.188 9.188 3.188z" fill="#FF991F"/><path d="M77.25 66a3.754 3.754 0 01-3.75-3.75 3.754 3.754 0 013.75-3.75c2.365 0 9.135 3.106 9.423 3.239a.565.565 0 010 1.023C86.385 62.893 79.615 66 77.25 66zm0-6.375a2.628 2.628 0 00-2.625 2.625 2.628 2.628 0 002.625 2.625c1.478 0 5.453-1.596 7.809-2.625-2.356-1.029-6.331-2.625-7.809-2.625zm1.313 46.839a.562.562 0 01-.022-1.125c2.204-.086 4.265-.648 6.127-1.671a.563.563 0 01.541.987c-2.016 1.107-4.245 1.717-6.624 1.809h-.022zm11.134-5.964a.56.56 0 01-.454-.891 13.76 13.76 0 002.632-8.108c0-3.558-1.365-6.949-3.844-9.549a.562.562 0 11.814-.775C91.524 83.983 93 87.651 93 91.5c0 3.159-.984 6.192-2.846 8.767a.564.564 0 01-.457.233z" fill="#472B29"/><path d="M54.75 111.75H60a5.25 5.25 0 005.25-5.25c0-2.672-2.002-4.851-4.583-5.183.042-.268.083-.536.083-.817 0-2.9-2.35-5.25-5.25-5.25-1.548 0-2.925.683-3.885 1.748A5.998 5.998 0 0039.75 98.25c0 .287.045.561.084.837a3.709 3.709 0 00-2.334-.837 3.744 3.744 0 00-3.682 3.083 5.242 5.242 0 00-.818-.083 5.25 5.25 0 000 10.5h11.25v.75h10.5v-.75z" fill="#FDFCEF"/><path d="M57.375 105a.375.375 0 01-.375-.375 3.33 3.33 0 013.327-3.327c.051.013 1.105-.002 1.866.204a.374.374 0 11-.195.723c-.666-.18-1.65-.18-1.67-.177a2.58 2.58 0 00-2.578 2.577.375.375 0 01-.375.375zm-10.125 6a.749.749 0 00-.53 1.28.749.749 0 101.06-1.06.749.749 0 00-.53-.22z" fill="#472B29"/><path d="M60 112.5h-5.25a.75.75 0 010-1.5H60c2.481 0 4.5-2.019 4.5-4.5 0-2.244-1.688-4.152-3.927-4.438a.754.754 0 01-.645-.86c.035-.231.072-.462.072-.702 0-2.481-2.019-4.5-4.5-4.5-1.275 0-2.457.532-3.328 1.5a.75.75 0 01-1.29-.347A5.272 5.272 0 0045.75 93a5.256 5.256 0 00-5.25 5.25c0 .215.032.42.062.627.043.305-.095.657-.363.81-.269.153-.594.177-.834-.015A2.955 2.955 0 0037.5 99a2.99 2.99 0 00-2.944 2.466.748.748 0 01-.854.608c-.231-.036-.462-.074-.702-.074a4.505 4.505 0 00-4.5 4.5c0 2.481 2.019 4.5 4.5 4.5h11.25a.75.75 0 010 1.5H33c-3.309 0-6-2.691-6-6s2.691-6 6-6c.089 0 .174.003.261.009A4.49 4.49 0 0137.5 97.5a4.36 4.36 0 011.517.27 6.758 6.758 0 016.733-6.27c2.746 0 5.199 1.69 6.23 4.161A5.968 5.968 0 0155.5 94.5a6.006 6.006 0 015.994 6.213c2.615.672 4.506 3.04 4.506 5.787 0 3.309-2.691 6-6 6z" fill="#472B29"/><path d="M51.75 111h-1.5a.75.75 0 000 1.5h1.5a.75.75 0 000-1.5z" fill="#472B29"/></svg>