<svg width="150" height="150" fill="none" xmlns="http://www.w3.org/2000/svg"><path d="M130.822 85.065A23.128 23.128 0 00133.5 74.25c0-9.931-6.239-18.386-15.001-21.717l.001-.033C118.5 35.103 104.397 21 87 21c-14.676 0-26.971 10.052-30.47 23.636A22.473 22.473 0 0049.5 43.5c-11.538 0-21.035 8.69-22.335 19.878C19.359 65.029 13.5 71.954 13.5 80.25c0 9.526 7.724 17.25 17.25 17.25.265 0 .528-.018.789-.033-.006.263-.039.519-.039.783 0 16.983 13.767 30.75 30.75 30.75 9.656 0 18.263-4.458 23.901-11.421C89.418 120.917 93.96 123 99 123c6.975 0 13.011-3.975 15.999-9.777 1.578.503 3.257.777 5.001.777 9.113 0 16.5-7.387 16.5-16.5 0-4.966-2.205-9.41-5.678-12.435z" fill="#A6E6FF"/><path d="M116.25 93.75v.75h7.5v-.75H129a6.75 6.75 0 006.75-6.75c0-3.5-2.673-6.344-6.083-6.683.033-.271.083-.536.083-.817a6.75 6.75 0 00-6.75-6.75c-2.157 0-4.055 1.029-5.291 2.604-.21-3.954-3.453-7.104-7.459-7.104a7.5 7.5 0 00-7.5 7.5c0 .669.115 1.305.28 1.923-.963-1.166-2.401-1.923-4.03-1.923-2.671 0-4.851 2.002-5.183 4.582-.271-.032-.536-.082-.817-.082a6.75 6.75 0 000 13.5h23.25z" fill="#FDFCEF"/><path d="M110.25 67.5c-4.549 0-8.25 3.7-8.25 8.25v.07a5.9 5.9 0 00-3-.82c-2.746 0-5.117 1.891-5.787 4.507A3.329 3.329 0 0093 79.5c-4.135 0-7.5 3.365-7.5 7.5s3.365 7.5 7.5 7.5h23.25a.75.75 0 000-1.5H93c-3.309 0-6-2.691-6-6s2.691-6 6-6c.175 0 .345.025.514.048l.212.028a.754.754 0 00.835-.65C94.848 78.187 96.756 76.5 99 76.5c1.328 0 2.585.602 3.452 1.65a.753.753 0 00.921.189.75.75 0 00.38-.86c-.172-.652-.253-1.201-.253-1.729a6.758 6.758 0 016.75-6.75c3.572 0 6.52 2.808 6.711 6.394a.75.75 0 001.339.423c1.157-1.472 2.868-2.317 4.7-2.317 3.309 0 6 2.691 6 6 0 .175-.025.345-.048.514l-.029.212a.752.752 0 00.669.837c3.084.308 5.408 2.86 5.408 5.937 0 3.309-2.691 6-6 6h-5.25a.75.75 0 000 1.5H129c4.135 0 7.5-3.365 7.5-7.5a7.45 7.45 0 00-6.004-7.316c.003-.061.004-.123.004-.184 0-4.135-3.365-7.5-7.5-7.5a7.396 7.396 0 00-4.774 1.746c-.897-3.606-4.143-6.246-7.976-6.246z" fill="#472B29"/><path d="M108 78c-2.104 0-3.913 1.499-4.369 3.511a3.517 3.517 0 00-1.818-.511 3.566 3.566 0 00-3.53 3.102 3.942 3.942 0 00-.876-.102c-2.293 0-4.216 1.8-4.377 4.098a.376.376 0 00.346.402h.027c.195 0 .36-.151.374-.348.133-1.906 1.727-3.402 3.629-3.402.343 0 .704.063 1.106.19a.327.327 0 00.101.016.39.39 0 00.387-.393 2.816 2.816 0 012.813-2.813 2.8 2.8 0 011.846.71.38.38 0 00.248.094.344.344 0 00.139-.029.37.37 0 00.232-.318c.156-1.939 1.79-3.457 3.722-3.457.312 0 .638.051 1.023.16a.374.374 0 00.463-.258.374.374 0 00-.257-.463A4.414 4.414 0 00108 78zm20.825 2.25c-1.989 0-3.762 1.346-4.311 3.273a.374.374 0 10.721.204c.458-1.605 1.934-2.727 3.59-2.727.175 0 .345.021.513.043a.376.376 0 00.1-.742 4.593 4.593 0 00-.613-.051z" fill="#472B29"/><path d="M23.25 76.5h-15a.75.75 0 010-1.5h15a.75.75 0 010 1.5zm4.5 0h-1.5a.75.75 0 010-1.5h1.5a.75.75 0 010 1.5zm7.486 3H21.75a.75.75 0 010-1.5h13.486a.75.75 0 010 1.5zm-16.486 0h-1.5a.75.75 0 010-1.5h1.5a.75.75 0 010 1.5zm-4.5 0h-3a.75.75 0 010-1.5h3a.75.75 0 010 1.5zm9 3h-3a.75.75 0 010-1.5h3a.75.75 0 010 1.5zm4.5-13.5h-1.5a.75.75 0 000 1.5h1.5a.75.75 0 000-1.5zm0 3h-7.5a.75.75 0 000 1.5h7.5a.75.75 0 000-1.5zm7.5 3h-4.5a.75.75 0 000 1.5h4.5a.75.75 0 000-1.5zm72-24h-15a.75.75 0 010-1.5h15a.75.75 0 010 1.5zm6 0h-3a.75.75 0 010-1.5h3a.75.75 0 010 1.5zm6 0h-3a.75.75 0 010-1.5h3a.75.75 0 010 1.5zm1.5 3h-15a.75.75 0 010-1.5h15a.75.75 0 010 1.5zm-18 0h-1.5a.75.75 0 010-1.5h1.5a.75.75 0 010 1.5zm-4.545 0H95.25a.75.75 0 010-1.5h2.955a.75.75 0 010 1.5zm13.545-6h-7.5a.75.75 0 010-1.5h7.5a.75.75 0 010 1.5zm10.5 0h-7.5a.75.75 0 010-1.5h7.5a.75.75 0 010 1.5zm-15 9h-3a.75.75 0 010-1.5h3a.75.75 0 010 1.5z" fill="#fff"/><path d="M83.25 53.367c0 2.295-1.725 4.154-3.856 4.154h-5.786c-2.132 0-3.857-1.858-3.857-4.154V42.756a6 6 0 016-6h4.5a3 3 0 013 3l-.001 13.611z" fill="#B2B0A6"/><path d="M79.394 58.27h-5.786c-2.54 0-4.607-2.199-4.607-4.903V42.756a6.758 6.758 0 016.75-6.75h4.5A3.754 3.754 0 0184 39.756v13.611c-.001 2.703-2.067 4.904-4.606 4.904zM75.75 37.507a5.256 5.256 0 00-5.25 5.25v10.611c0 1.877 1.394 3.404 3.106 3.404h5.786c1.713 0 3.107-1.528 3.107-3.404V39.756c0-1.24-1.01-2.25-2.25-2.25H75.75z" fill="#472B29"/><path d="M45.75 111.75h64.5c4.964 0 9-4.037 9-9 0-4.71-3.637-8.588-8.25-8.969v4.532a4.507 4.507 0 013.75 4.437c0 2.481-2.019 4.5-4.5 4.5h-12V98.3h-6v8.95h-30v-12h-6v12h-10.5v4.5z" fill="#B2B0A6"/><path d="M111.75 94.636c3.836.707 6.75 4.078 6.75 8.114 0 4.549-3.701 8.25-8.25 8.25H46.5v-3h9a1.5 1.5 0 001.5-1.5V96h4.5v10.5A1.5 1.5 0 0063 108h28.5a1.5 1.5 0 001.5-1.5v-7.45h4.5v7.45A1.5 1.5 0 0099 108h11.25a5.256 5.256 0 005.25-5.25 5.258 5.258 0 00-3.75-5.031v-3.082zM110.25 93v6a3.755 3.755 0 013.75 3.75 3.755 3.755 0 01-3.75 3.75H99v-8.95h-7.5v8.95H63v-12h-7.5v12H45v6h65.25c5.376 0 9.75-4.374 9.75-9.75S115.626 93 110.25 93z" fill="#472B29"/><path d="M66.75 92.129l.861.128c1.234.186 2.97.962 5.167 1.944 4.938 2.21 12.402 5.548 21.534 5.548 9.656 0 19.148-.938 22.781-1.343a.743.743 0 00.657-.744v-3.351c-.002-3.797-.005-9.534-9.693-11.262C83.25 78.629 83.25 69.162 83.25 62.25V46.5c0-2.953-2.208-3.733-3.375-3.733-1.638 0-19.33 3.069-26.008 4.25a.75.75 0 00-.617.738v14.87c0 2.568-.526 4.912-1.136 7.627-.83 3.7-1.864 8.303-1.864 15.248 0 3.067.907 9.496 1.299 12.117a.74.74 0 00.741.633H66a.75.75 0 00.75-.75v-5.371z" fill="#FDFCEF"/><path d="M117 93.132l-.321.05c-3.567.395-12.885 1.318-22.367 1.318-8.33 0-15.353-3.141-20.01-5.223-2.551-1.142-4.396-1.966-6.135-2.226A4.378 4.378 0 0067.5 87H50.437l1.313 10.5 14.25.188c.148 0 .789-5.648.938-5.626 1.535.23 1.5 0 1.874.188 4.669 2.334 16.288 7.313 24.938 7.313 9.556 0 17.202-.536 20.812-.938.129-.018 1.587-.081 2.438-.138v-5.355z" fill="#605E60"/><path d="M79.88 44.117c.346.001 2.02.123 2.02 2.383v15.75c0 6.972 0 17.508 25.918 22.13 8.576 1.528 8.579 6.189 8.582 9.933v2.813c-3.945.426-12.939 1.274-22.088 1.274-8.843 0-16.148-3.267-20.981-5.43-2.383-1.065-4.103-1.835-5.519-2.047a2.104 2.104 0 00-1.683.486A2.1 2.1 0 0065.4 93v3.9H52.807c-.416-2.843-1.207-8.61-1.207-11.4 0-6.795.974-11.129 1.831-14.952.628-2.793 1.169-5.205 1.169-7.923V48.258c9.18-1.622 23.745-4.108 25.28-4.142zm-.005-2.1c-2.063 0-26.139 4.262-26.139 4.262a1.5 1.5 0 00-1.236 1.476v14.87c0 5.999-3 10.876-3 22.875 0 3.099.901 9.504 1.306 12.228.11.735.74 1.272 1.483 1.272H66a1.5 1.5 0 001.5-1.5V93c3.75.563 13.5 7.5 26.813 7.5 9.777 0 19.418-.963 22.862-1.346a1.493 1.493 0 001.325-1.49v-3.352c-.003-4.012-.18-10.194-10.312-12C84 78 84 69 84 62.25V46.5c0-3.298-2.438-4.483-4.125-4.483z" fill="#472B29"/><path d="M66.375 87.938c0-3.224-.947-6.359-2.736-9.065a.563.563 0 01.937-.623 17.516 17.516 0 012.924 9.688h-1.125zM61.986 76.5a.557.557 0 01-.399-.166 17.041 17.041 0 00-1.376-1.246.561.561 0 11.705-.876c.502.404.997.85 1.47 1.328a.562.562 0 01-.4.96zm-5.548-3.744a.557.557 0 01-.218-.043 16.325 16.325 0 00-4.532-1.176.563.563 0 01-.498-.622c.034-.309.306-.549.622-.498 1.656.182 3.285.605 4.843 1.257a.563.563 0 01-.218 1.082zM82.688 52.5H78.75a.75.75 0 010-1.5h3.938a.75.75 0 010 1.5zm.374 7.5H78.75a.75.75 0 010-1.5h4.313a.75.75 0 010 1.5zm-4.312 7.5a.75.75 0 01-.127-1.49l4.312-.75a.75.75 0 01.257 1.478l-4.313.75a.636.636 0 01-.129.012zm1.5 7.125a.75.75 0 01-.417-1.374l3.938-2.625a.75.75 0 11.83 1.248l-3.937 2.625a.733.733 0 01-.414.126zm4.5 5.625a.747.747 0 01-.605-1.191l3-4.125a.747.747 0 011.047-.165c.337.243.41.712.166 1.047l-3 4.125a.75.75 0 01-.608.309zm6 3.375a.75.75 0 01-.705-1.007l1.5-4.124a.75.75 0 111.41.513l-1.5 4.124a.75.75 0 01-.705.494zm6.563 1.875a.75.75 0 01-.729-.931l.937-3.75a.75.75 0 111.455.363l-.938 3.75a.746.746 0 01-.725.568z" fill="#472B29"/><path d="M117 93.132l-.321.05c-3.567.395-12.885 1.318-22.367 1.318-8.33 0-15.353-3.141-20.01-5.223-2.551-1.142-4.396-1.966-6.135-2.226A4.378 4.378 0 0067.5 87H50.437v1.5H67.5c.148 0 .298.01.447.033 1.535.23 3.301 1.02 5.754 2.117C78.463 92.78 85.662 96 94.311 96c9.557 0 18.941-.928 22.551-1.33l.137-.02v-1.518z" fill="#472B29"/><path d="M53.25 114.75h5.25a5.25 5.25 0 005.25-5.25c0-2.672-2.002-4.851-4.583-5.183.042-.268.083-.537.083-.817 0-2.9-2.35-5.25-5.25-5.25-1.548 0-2.925.683-3.885 1.748a6 6 0 00-5.865-4.748 6 6 0 00-6 6c0 .286.045.561.084.837A3.709 3.709 0 0036 101.25a3.745 3.745 0 00-3.682 3.082 5.242 5.242 0 00-.818-.082 5.25 5.25 0 100 10.5h11.25v.75h10.5v-.75z" fill="#FDFCEF"/><path d="M55.875 108a.375.375 0 01-.375-.375 3.33 3.33 0 013.327-3.327c.051.013 1.105-.002 1.866.204a.374.374 0 11-.195.723c-.666-.18-1.65-.18-1.67-.177a2.58 2.58 0 00-2.578 2.577.375.375 0 01-.375.375zm-10.125 6a.749.749 0 00-.53 1.28.749.749 0 101.06-1.06.749.749 0 00-.53-.22z" fill="#472B29"/><path d="M58.5 115.5h-5.25a.75.75 0 010-1.5h5.25c2.481 0 4.5-2.019 4.5-4.5 0-2.244-1.688-4.152-3.927-4.439a.749.749 0 01-.645-.859c.035-.231.072-.462.072-.702 0-2.481-2.019-4.5-4.5-4.5-1.275 0-2.457.532-3.328 1.5a.748.748 0 01-1.29-.347A5.272 5.272 0 0044.25 96a5.256 5.256 0 00-5.25 5.25c0 .214.032.42.062.627.043.304-.095.657-.363.81-.269.153-.594.177-.834-.015A2.952 2.952 0 0036 102a2.99 2.99 0 00-2.944 2.466.748.748 0 01-.854.608c-.231-.036-.462-.074-.702-.074a4.505 4.505 0 00-4.5 4.5c0 2.481 2.019 4.5 4.5 4.5h11.25a.75.75 0 010 1.5H31.5c-3.309 0-6-2.691-6-6s2.691-6 6-6c.088 0 .174.003.261.009A4.49 4.49 0 0136 100.5c.523 0 1.033.091 1.517.27a6.758 6.758 0 016.733-6.27c2.746 0 5.199 1.69 6.23 4.161A5.968 5.968 0 0154 97.5a6.006 6.006 0 015.994 6.213c2.614.672 4.506 3.04 4.506 5.787 0 3.309-2.691 6-6 6z" fill="#472B29"/><path d="M50.25 114h-1.5a.75.75 0 000 1.5h1.5a.75.75 0 000-1.5z" fill="#472B29"/></svg>