<svg width="150" height="150" fill="none" xmlns="http://www.w3.org/2000/svg"><path d="M130.822 85.065A23.128 23.128 0 00133.5 74.25c0-9.931-6.239-18.386-15.001-21.717l.001-.033C118.5 35.103 104.397 21 87 21c-14.676 0-26.971 10.052-30.47 23.636A22.473 22.473 0 0049.5 43.5c-11.538 0-21.035 8.69-22.335 19.878C19.359 65.029 13.5 71.954 13.5 80.25c0 9.526 7.724 17.25 17.25 17.25.265 0 .528-.018.789-.033-.006.263-.039.519-.039.783 0 16.983 13.767 30.75 30.75 30.75 9.656 0 18.263-4.458 23.901-11.421C89.418 120.917 93.96 123 99 123c6.975 0 13.011-3.975 15.999-9.777 1.578.503 3.257.777 5.001.777 9.113 0 16.5-7.387 16.5-16.5 0-4.966-2.205-9.41-5.678-12.435z" fill="#A6E6FF"/><path d="M127.312 99.75h9.188a6.75 6.75 0 006.75-6.75c0-3.5-2.673-6.344-6.083-6.683.034-.271.083-.536.083-.817a6.75 6.75 0 00-6.75-6.75c-2.157 0-4.055 1.029-5.291 2.604-.209-3.954-3.452-7.104-7.459-7.104a7.5 7.5 0 00-7.5 7.5c0 .669.115 1.305.28 1.923-.963-1.166-2.401-1.923-4.03-1.923-2.672 0-4.851 2.002-5.183 4.582-.271-.032-.537-.082-.817-.082a6.75 6.75 0 000 13.5h22.312v.75h4.5v-.75z" fill="#FDFCEF"/><path d="M117.75 73.5c-4.549 0-8.25 3.7-8.25 8.25v.07a5.9 5.9 0 00-3-.82c-2.747 0-5.117 1.891-5.787 4.507a3.342 3.342 0 00-.213-.007c-4.135 0-7.5 3.365-7.5 7.5s3.365 7.5 7.5 7.5h22.312a.75.75 0 000-1.5H100.5c-3.309 0-6-2.691-6-6s2.691-6 6-6c.175 0 .345.025.515.048l.211.028a.754.754 0 00.836-.65c.286-2.239 2.194-3.926 4.438-3.926 1.328 0 2.585.602 3.452 1.65a.753.753 0 00.921.189.75.75 0 00.38-.86c-.172-.652-.253-1.201-.253-1.729a6.758 6.758 0 016.75-6.75c3.572 0 6.52 2.808 6.711 6.394a.75.75 0 001.339.423c1.157-1.472 2.868-2.317 4.7-2.317 3.309 0 6 2.691 6 6 0 .175-.025.345-.048.514l-.029.212a.752.752 0 00.669.837c3.084.308 5.408 2.86 5.408 5.937 0 3.309-2.691 6-6 6h-9.188a.75.75 0 000 1.5h9.188c4.135 0 7.5-3.365 7.5-7.5a7.45 7.45 0 00-6.004-7.316c.003-.061.004-.123.004-.184 0-4.135-3.365-7.5-7.5-7.5a7.396 7.396 0 00-4.774 1.746c-.897-3.606-4.143-6.246-7.976-6.246z" fill="#472B29"/><path d="M115.5 84c-2.104 0-3.913 1.499-4.369 3.511a3.517 3.517 0 00-1.818-.511 3.566 3.566 0 00-3.53 3.102 3.938 3.938 0 00-.876-.102c-2.293 0-4.216 1.8-4.377 4.098a.376.376 0 00.347.402h.027c.195 0 .36-.151.373-.348.134-1.906 1.727-3.402 3.629-3.402.343 0 .705.063 1.107.19a.33.33 0 00.1.016.39.39 0 00.387-.393 2.816 2.816 0 012.813-2.813 2.8 2.8 0 011.846.71.38.38 0 00.248.094.344.344 0 00.139-.029.372.372 0 00.233-.318c.156-1.939 1.789-3.457 3.721-3.457.312 0 .638.051 1.023.16a.376.376 0 00.206-.722A4.414 4.414 0 00115.5 84zm20.824 2.25c-1.989 0-3.762 1.346-4.311 3.273a.375.375 0 10.722.204c.457-1.605 1.933-2.727 3.589-2.727.176 0 .345.021.513.043a.377.377 0 00.422-.321.374.374 0 00-.321-.421 4.595 4.595 0 00-.614-.051z" fill="#472B29"/><path d="M26.108 76.5H11.25a.75.75 0 010-1.5h14.858a.75.75 0 010 1.5zm4.642 0h-1.5a.75.75 0 010-1.5h1.5a.75.75 0 010 1.5zm7.486 3H24.75a.75.75 0 010-1.5h13.486a.75.75 0 010 1.5zm-16.486 0h-1.5a.75.75 0 010-1.5h1.5a.75.75 0 010 1.5zm-4.5 0h-3a.75.75 0 010-1.5h3a.75.75 0 010 1.5zm9 3h-3a.75.75 0 010-1.5h3a.75.75 0 010 1.5zm4.5-13.5h-1.5a.75.75 0 000 1.5h1.5a.75.75 0 000-1.5zm0 3h-7.5a.75.75 0 000 1.5h7.5a.75.75 0 000-1.5zm7.5 3h-4.5a.75.75 0 000 1.5h4.5a.75.75 0 000-1.5zm87 33h-15a.75.75 0 010-1.5h15a.75.75 0 010 1.5zm6 0h-3a.75.75 0 010-1.5h3a.75.75 0 010 1.5zm7.5 3h-15a.75.75 0 010-1.5h15a.75.75 0 010 1.5zm-18 0h-1.5a.75.75 0 010-1.5h1.5a.75.75 0 010 1.5zm-4.688 0h-2.812a.75.75 0 010-1.5h2.812a.75.75 0 110 1.5zm13.688-6h-7.5a.75.75 0 010-1.5h7.5a.75.75 0 010 1.5zm-4.5 9h-3a.75.75 0 010-1.5h3a.75.75 0 010 1.5z" fill="#fff"/><path d="M42.75 45.75H48c2.9 0 5.25-2.35 5.25-5.25 0-2.672-2.002-4.851-4.583-5.182.042-.269.083-.537.083-.818 0-2.9-2.35-5.25-5.25-5.25-1.548 0-2.925.683-3.885 1.747A5.998 5.998 0 0027.75 32.25c0 .286.045.561.084.837a3.709 3.709 0 00-2.334-.837 3.744 3.744 0 00-3.683 3.083A5.242 5.242 0 0021 35.25a5.25 5.25 0 100 10.5h11.25v.75h10.5v-.75z" fill="#FDFCEF"/><path d="M45.375 39a.375.375 0 01-.375-.375 3.33 3.33 0 013.327-3.327c.051.014 1.105-.002 1.866.204a.375.375 0 01-.195.723c-.666-.18-1.65-.18-1.67-.177a2.58 2.58 0 00-2.578 2.577.375.375 0 01-.375.375zM35.25 46.5a.75.75 0 100-1.5.75.75 0 000 1.5z" fill="#472B29"/><path d="M48 46.5h-5.25a.75.75 0 010-1.5H48c2.481 0 4.5-2.019 4.5-4.5 0-2.244-1.688-4.152-3.927-4.438a.754.754 0 01-.645-.86c.035-.231.072-.462.072-.702 0-2.481-2.019-4.5-4.5-4.5-1.275 0-2.457.532-3.328 1.5a.75.75 0 01-1.29-.346A5.272 5.272 0 0033.75 27a5.256 5.256 0 00-5.25 5.25c0 .215.032.42.061.627.044.304-.094.657-.363.81-.268.153-.593.177-.834-.015A2.955 2.955 0 0025.5 33a2.99 2.99 0 00-2.945 2.466.747.747 0 01-.853.608C21.471 36.038 21.24 36 21 36a4.505 4.505 0 00-4.5 4.5c0 2.481 2.019 4.5 4.5 4.5h11.25a.75.75 0 010 1.5H21c-3.309 0-6-2.691-6-6s2.691-6 6-6c.088 0 .174.003.261.009A4.49 4.49 0 0125.5 31.5a4.36 4.36 0 011.517.27 6.758 6.758 0 016.733-6.27c2.746 0 5.199 1.69 6.23 4.161A5.968 5.968 0 0143.5 28.5a6.006 6.006 0 015.994 6.213C52.108 35.385 54 37.753 54 40.5c0 3.309-2.691 6-6 6z" fill="#472B29"/><path d="M39.75 45h-1.5a.75.75 0 000 1.5h1.5a.75.75 0 000-1.5z" fill="#472B29"/><path d="M95.25 55.95a7.2 7.2 0 100-14.4 7.2 7.2 0 000 14.4z" fill="#FABF82"/><path d="M95.25 42.6a6.156 6.156 0 016.15 6.15 6.156 6.156 0 01-6.15 6.15 6.156 6.156 0 01-6.15-6.15 6.156 6.156 0 016.15-6.15zm0-2.1A8.25 8.25 0 0087 48.75 8.25 8.25 0 0095.25 57a8.25 8.25 0 008.25-8.25 8.25 8.25 0 00-8.25-8.25z" fill="#472B29"/><path d="M114 68.955c-40.709 0-51.578-23.677-52.15-24.75a3 3 0 015.293-2.829c.511.944 9.92 21.58 46.857 21.58a3.001 3.001 0 010 6z" fill="#F6CCA4"/><path d="M114 69.705c-38.175 0-50.64-20.853-52.752-25.032-1.03-1.94-.336-4.215 1.49-5.187a3.758 3.758 0 015.065 1.536l.073.142C69.663 44.678 80.28 62.206 114 62.206a3.755 3.755 0 013.75 3.75 3.755 3.755 0 01-3.75 3.75zM64.476 40.55c-.351 0-.705.084-1.034.259a2.252 2.252 0 00-.928 3.044l.073.142c2.042 4.044 14.117 24.21 51.413 24.21 1.24 0 2.25-1.01 2.25-2.25s-1.01-2.25-2.25-2.25c-34.596 0-45.605-18.212-47.46-21.861-.449-.84-1.25-1.294-2.064-1.294z" fill="#472B29"/><path d="M76.78 106.469l-9.247-35.411c-.308-2.466 2.942-4.715 5.407-5.024a4.501 4.501 0 015.024 3.908l4.692 35.621c.309 2.466-.845 3.718-2.345 3.903-1.561.192-2.908-.648-3.53-2.997z" fill="#8889B9"/><path d="M79.888 110.243c-1.842 0-3.222-1.28-3.832-3.581v-.003l-9.248-35.41c-.4-3.164 3.314-5.617 6.041-5.957a5.207 5.207 0 013.868 1.06 5.221 5.221 0 011.993 3.498l4.692 35.617c.226 1.813-.282 2.907-.746 3.504-.544.697-1.323 1.126-2.252 1.24a4.37 4.37 0 01-.516.032zm-2.382-3.966c.473 1.785 1.39 2.607 2.717 2.443.365-.045.877-.198 1.25-.673.416-.536.57-1.362.44-2.391L77.22 70.039a3.732 3.732 0 00-1.424-2.503 3.7 3.7 0 00-2.76-.758c-2.291.287-4.992 2.315-4.758 4.187l9.228 35.312z" fill="#472B29"/><path d="M78.563 78H58.5a4.5 4.5 0 01-2.99-1.137l-9.636-9.426c-1.857-1.651-2.518-3.888-1.437-5.063 1.438-1.563 4.376 0 6.553 1.761l9.22 6.365 18.352-3c2.485 0 4.5 3.514 4.5 6a4.5 4.5 0 01-4.5 4.5z" fill="#8889B9"/><path d="M78.563 78.75H58.5a5.244 5.244 0 01-3.487-1.326l-9.662-9.45c-1.287-1.143-2.112-2.642-2.18-3.984-.041-.836.206-1.569.715-2.124 1.49-1.617 4.25-1.004 7.576 1.688l8.926 6.157 18.053-2.952h.012c3.16 0 5.36 4.025 5.36 6.74a5.256 5.256 0 01-5.25 5.251zM46.02 62.483c-.419 0-.774.121-1.03.4-.235.253-.343.601-.32 1.032.047.935.699 2.069 1.704 2.961l9.661 9.45a3.72 3.72 0 002.465.924h20.063a3.754 3.754 0 003.75-3.75c0-2.244-1.855-5.25-3.75-5.25l-18.53 3.039-9.47-6.534c-1.465-1.185-3.289-2.272-4.543-2.272z" fill="#472B29"/><path d="M112.5 62.941c-28.75 0-39.879-15.787-43.478-20.83l-6.511 3.759c2.007 2.919 7.902 9.843 15.549 14.715l-8.966 7.102c-4.744 3.231 6.188 14.72 10.313 12l14.395-12.082c5.39 1.555 11.591 2.611 18.698 2.844v-7.508z" fill="#88AE45"/><path d="M77.916 81.117c-3.26 0-7.259-3.392-9.317-6.464-2.275-3.396-2.311-6.325-.096-7.834l7.767-6.156c-7.19-4.89-12.658-11.339-14.623-14.198a1.049 1.049 0 01.34-1.504L68.5 41.2a1.051 1.051 0 011.38.3c3.636 5.098 14.547 20.39 42.621 20.39.58 0 1.05.47 1.05 1.05v7.508a1.056 1.056 0 01-1.086 1.05c-6.5-.215-12.692-1.133-18.413-2.733L80.081 80.49c-.656.434-1.39.626-2.165.626zM64.042 46.198c2.432 3.236 7.787 9.173 14.58 13.5a1.048 1.048 0 01.087 1.707l-8.965 7.103c-1.745 1.192.018 4.108.598 4.974 2.466 3.68 6.818 6.421 8.486 5.326l14.298-12.01c.268-.225.627-.302.967-.204 5.388 1.554 11.22 2.482 17.355 2.761v-5.373c-27.191-.361-38.57-14.73-42.726-20.487l-4.68 2.703z" fill="#472B29"/><path d="M87.496 49.113L101.53 45s-.962-9.17-16.03-6.373c0 0 2.256 2.343 1.996 10.486z" fill="#EE3E54"/><path d="M87.496 49.863a.75.75 0 01-.75-.774c.243-7.607-1.774-9.929-1.794-9.953a.753.753 0 01-.157-.747.746.746 0 01.57-.5c5.991-1.112 10.572-.524 13.614 1.748 2.944 2.2 3.285 5.16 3.298 5.285a.75.75 0 01-.534.798L87.71 49.833a.745.745 0 01-.213.03zm-.767-10.684c.665 1.328 1.569 4.038 1.535 8.927l12.389-3.63c-.239-.838-.891-2.392-2.603-3.658-2.516-1.86-6.32-2.41-11.322-1.64z" fill="#472B29"/><path d="M84.861 113.25H72.75v-3h18l-.957.957a6.976 6.976 0 01-4.932 2.043z" fill="#77CBD2"/><path d="M84.86 113.625H72.75a.375.375 0 01-.375-.375v-3c0-.207.168-.375.375-.375h18a.374.374 0 01.264.639l-.957.957a7.389 7.389 0 01-5.198 2.154zm-11.735-.75h11.734c1.739 0 3.44-.705 4.669-1.934l.316-.316H73.125v2.25z" fill="#472B29"/><path d="M38.793 63.389l8.563-8.564 2.121 2.121L36.75 69.675v-1.353c0-1.851.735-3.626 2.043-4.934z" fill="#77CBD2"/><path d="M36.75 70.05a.373.373 0 01-.375-.375v-1.353c0-1.963.765-3.81 2.154-5.199l8.563-8.563a.375.375 0 01.532 0l2.12 2.12a.375.375 0 010 .532L37.017 69.939a.382.382 0 01-.267.111zm2.309-6.396a6.563 6.563 0 00-1.934 4.668v.447l11.823-11.823-1.592-1.591-8.297 8.299z" fill="#472B29"/><path d="M83.25 41.25a3 3 0 100-6 3 3 0 000 6z" fill="#F4989E"/><path d="M83.25 42a3.754 3.754 0 01-3.75-3.75 3.754 3.754 0 013.75-3.75A3.754 3.754 0 0187 38.25 3.754 3.754 0 0183.25 42zm0-6C82.01 36 81 37.01 81 38.25s1.01 2.25 2.25 2.25 2.25-1.01 2.25-2.25S84.49 36 83.25 36zm19.5 78h-36a.75.75 0 010-1.5h36a.75.75 0 010 1.5zm-40.5 0h-13.5a.75.75 0 010-1.5h13.5a.75.75 0 010 1.5zm3-18h-9a.75.75 0 010-1.5h9a.75.75 0 010 1.5zm-10.5-7.5h-12a.75.75 0 010-1.5h12a.75.75 0 010 1.5zm10.5 0h-6a.75.75 0 010-1.5h6a.75.75 0 010 1.5zM51.75 96h-6a.75.75 0 010-1.5h6a.75.75 0 010 1.5zm16.5 7.5h-6a.75.75 0 010-1.5h6a.75.75 0 010 1.5zm-10.5 0h-7.5a.75.75 0 010-1.5h7.5a.75.75 0 010 1.5zm30.181-35.331a.375.375 0 01-.242-.662l2.569-2.169a.374.374 0 11.485.574l-2.569 2.168a.377.377 0 01-.243.089zm-.278-22.083a.375.375 0 01-.105-.735l6.952-2.035a.375.375 0 11.212.72l-6.953 2.035a.388.388 0 01-.106.015zm8.905-2.672a.377.377 0 01-.359-.264.376.376 0 01.248-.469l3.66-1.133c.206-.06.408.05.47.248a.377.377 0 01-.248.47l-3.66 1.132a.415.415 0 01-.111.016zM77.625 76.875a.375.375 0 01-.242-.662l8.003-6.759a.375.375 0 11.485.574l-8.003 6.758a.377.377 0 01-.243.089z" fill="#472B29"/></svg>