<svg width="20" height="20" fill="none" xmlns="http://www.w3.org/2000/svg"><path fill-rule="evenodd" clip-rule="evenodd" d="M4 2h12a4 4 0 014 4v10a4 4 0 01-4 4H4a4 4 0 01-4-4V6a4 4 0 014-4zm0 2a2 2 0 00-2 2v10a2 2 0 002 2h12a2 2 0 002-2V6a2 2 0 00-2-2H4z" fill="#0F2A44"/><path fill-rule="evenodd" clip-rule="evenodd" d="M1 8a1 1 0 011-1h16a1 1 0 110 2H2a1 1 0 01-1-1zm5-8a1 1 0 011 1v4a1 1 0 01-2 0V1a1 1 0 011-1zm8 0a1 1 0 011 1v4a1 1 0 01-2 0V1a1 1 0 011-1z" fill="#0F2A44"/><path d="M6 11a1 1 0 11-2 0 1 1 0 012 0zm0 4a1 1 0 11-2 0 1 1 0 012 0zm5-4a1 1 0 11-2 0 1 1 0 012 0zm0 4a1 1 0 11-2 0 1 1 0 012 0zm5-4a1 1 0 11-2 0 1 1 0 012 0zm0 4a1 1 0 11-2 0 1 1 0 012 0z" fill="#0F2A44"/></svg>