<svg width="21" height="27" fill="none" xmlns="http://www.w3.org/2000/svg"><path fill-rule="evenodd" clip-rule="evenodd" d="M10.932 26.863l.003-.002.008-.005.022-.017.088-.064a27.5 27.5 0 001.457-1.165 32.558 32.558 0 003.432-3.405C18.423 19.334 21 15.24 21 10.556c0-2.798-1.105-5.483-3.073-7.463A10.47 10.47 0 0010.5 0a10.47 10.47 0 00-7.426 3.094A10.59 10.59 0 000 10.558c0 4.682 2.577 8.777 5.058 11.646a32.55 32.55 0 003.431 3.405 27.988 27.988 0 001.545 1.23l.024.017.007.005.003.002a.751.751 0 00.864 0zM14.25 10.5a3.75 3.75 0 11-7.5 0 3.75 3.75 0 017.5 0z" fill="#0F2A44"/></svg>