<svg width="200" height="19" fill="none" xmlns="http://www.w3.org/2000/svg"><path fill-rule="evenodd" clip-rule="evenodd" d="M0 8.367v2.51l8.914 4.492V12.33L2.797 9.644l6.117-2.686V3.875L0 8.367zm9.963 10.436h2.84L19.14 0h-2.796l-6.38 18.803zM29.102 8.367L20.188 3.83v3.083L26.305 9.6l-6.117 2.686v3.039l8.914-4.492V8.367zm6.292 1.365c0 4.14 3.234 7.222 7.56 7.222s7.516-2.95 7.516-7.222c0-4.36-3.234-7.266-7.516-7.266-4.326 0-7.56 3.083-7.56 7.266zm2.753 0c0-2.73 1.967-4.58 4.807-4.58 2.84 0 4.763 1.85 4.763 4.58 0 2.686-1.923 4.58-4.763 4.58-2.797-.044-4.807-1.938-4.807-4.58zm14.07-1.85h2.316l.962-5.152H52.61l-.393 5.152zm9.046 8.764h2.753V5.328h4.85V2.774H56.413v2.554h4.894v11.318h-.044zm8.433-6.914c0 4.14 3.234 7.222 7.56 7.222s7.516-2.95 7.516-7.222c0-4.36-3.234-7.266-7.516-7.266-4.326 0-7.56 3.083-7.56 7.266zm2.753 0c0-2.73 1.967-4.58 4.807-4.58 2.84 0 4.763 1.85 4.763 4.58 0 2.686-1.923 4.58-4.763 4.58-2.797-.044-4.807-1.938-4.807-4.58zm16.998-2.334l8.521 9.248h2.229V2.774h-2.753v9.204l-8.565-9.204h-2.185v13.872h2.753V7.398zm18.003 3.875v5.373h2.753v-5.373l6.336-8.543h-3.452l-4.238 5.725-4.239-5.725h-3.452l6.292 8.543zm26.961 1.498c0-6.43-9.744-3.215-9.744-6.298 0-1.013 1.267-1.717 3.19-1.717 1.791 0 3.233.88 3.452 1.937h2.84c-.218-2.51-2.753-4.227-6.292-4.227-3.365 0-5.943 1.497-5.943 3.963 0 6.341 9.744 2.995 9.744 6.297 0 1.057-1.311 1.85-3.19 1.85-2.01 0-3.539-.837-3.845-2.202h-2.884c.219 2.73 3.059 4.58 6.773 4.58 3.671-.044 5.899-1.894 5.899-4.184zm5.812 3.875h2.753V5.328h4.85V2.774h-12.453v2.554h4.894v11.318h-.044zm15.687-2.422c-2.097 0-3.671-1.718-3.671-4.096V2.774h-2.752v7.354c0 3.831 2.665 6.738 6.423 6.738 3.802 0 6.423-2.907 6.423-6.738V2.774h-2.752v7.354c0 2.422-1.53 4.096-3.671 4.096zm8.87 2.422h6.511c3.627 0 7.123-2.995 7.123-6.958 0-4.095-3.277-6.914-7.123-6.914h-6.511v13.872zm10.881-6.958c0 2.51-1.879 4.316-4.37 4.316h-3.758V5.416h3.758c2.535 0 4.37 1.762 4.37 4.272zm7.385-6.914h-2.753v13.872h2.753V2.774zm1.879 6.958c0 4.14 3.233 7.222 7.559 7.222 4.326 0 7.516-2.95 7.516-7.222 0-4.36-3.234-7.266-7.516-7.266-4.326 0-7.559 3.083-7.559 7.266zm2.753 0c0-2.73 1.966-4.58 4.806-4.58s4.763 1.85 4.763 4.58c0 2.686-1.923 4.58-4.763 4.58-2.796-.044-4.806-1.938-4.806-4.58z" fill="#0F2A44"/></svg>