<svg width="216" height="52" fill="none" xmlns="http://www.w3.org/2000/svg"><g clip-path="url(#clip0_4_321)"><path d="M34.02 32.314c-2.68.929-4.76 3.854-5.084 6.64-.047.51 0 1.021.23 1.439.787 1.532 2.45.79 2.682-.093.462-1.207 1.017-2.832 1.849-3.9.508-.79 1.386-1.393 1.802-2.229.555-.928-.416-2.135-1.479-1.857zm7.488 19.082c-.74-1.067-1.017-2.553-1.34-3.807-.37-1.253-.416-2.646-.555-3.9-.092-1.346-.185-2.646-.139-3.946.047-1.3 0-3.575 1.665-3.9 2.033-.372 2.08 2.275 2.172 3.621.046 1.254.139 2.461.231 3.715.046 1.3.277 2.6.324 3.946 0 1.254.184 2.646-.047 3.854-.277 1.114-1.617 1.439-2.31.417zm-5.87-33.056c-.277-1.44-.647-2.833-1.017-4.272a34.088 34.088 0 00-.6-2.043 7.232 7.232 0 00-.37-1.068c-.186-.51-.51-.882-.879-1.253-.647-.604-1.895-.418-2.08.557-.092.51-.185 1.021-.046 1.532.092.371.231.743.323 1.068.232.696.463 1.393.74 2.089.555 1.44 1.063 2.879 1.756 4.318.278.557 1.017.696 1.526.51.508-.278.74-.835.647-1.439zm8.135-.976c.324-.557.37-1.207.509-1.81.138-.604.277-1.254.416-1.858.277-1.253.508-2.507.785-3.76.324-1.254.694-2.461 1.017-3.715.324-1.253 1.063-2.832.74-4.132-.324-1.3-1.942-1.578-2.82-.743-.924.836-1.155 2.693-1.479 3.9-.323 1.3-.508 2.6-.693 3.947-.185 1.3-.37 2.646-.462 3.946-.047.65-.047 1.254-.047 1.904 0 .65-.092 1.44.139 2.043.277.835 1.387 1.114 1.895.278zm6.795 1.811c1.387-1.625 2.82-3.296 4.299-4.875 1.479-1.579 3.19-2.971 4.668-4.55.601-.65.694-1.625.139-2.321-.509-.65-1.572-.975-2.311-.465a18.504 18.504 0 00-2.681 2.368c-.786.836-1.526 1.672-2.265 2.507-1.48 1.765-2.866 3.622-4.068 5.618-.37.604-.185 1.393.37 1.81.555.419 1.387.465 1.849-.092zm-1.109 16.529c1.525 1.485 3.096 3.017 4.53 4.596 1.479 1.625 2.727 3.39 4.206 4.968.6.65 1.571.79 2.31.278.694-.464 1.064-1.532.602-2.275-.647-1.021-1.387-1.95-2.173-2.832-.74-.835-1.571-1.671-2.357-2.46-1.664-1.625-3.374-3.111-5.316-4.411-.554-.372-1.386-.279-1.802.232-.416.557-.509 1.44 0 1.904zm-6.472-12.072c-1.109.047-2.033.232-2.634.418-.648.232-1.11.743-1.387 1.486-.046.046-.046.093-.093.139l6.425-.743c-.416-.928-1.201-1.393-2.31-1.3zm-4.16 4.504c.047.093.047.232.093.325.277.743.878 1.346 1.802 1.718.925.371 1.803.557 2.635.464.647-.047 1.294-.418 1.988-1.114.647-.697 1.525-.65 2.588.139.462.278.416.79-.138 1.44-.555.65-.971 1.067-1.295 1.3-.23.138-.416.278-.647.417a4.51 4.51 0 01-1.803.557c-.6.047-1.201.047-1.802 0-.786-.093-1.572-.232-2.311-.557a9.624 9.624 0 01-1.664-.882c-.509-.372-1.017-.836-1.387-1.393-.74-1.021-1.248-2.09-1.525-3.343-.416-1.857.046-3.436 1.386-4.69.647-.65 1.433-1.113 2.265-1.438.832-.325 1.85-.558 3.005-.697 1.155-.14 2.357.093 3.559.697 1.202.603 1.941 1.532 2.219 2.692.277 1.161.323 1.997.138 2.461-.185.464-.508.743-.97.882-.463.093-3.19.465-8.136 1.022z" fill="#FFC000"/><path d="M4.299 31.293s-.509 2.09-1.895 1.95C1.017 33.103.139 32.546 0 30.829c-.139-2.09.185-2.925.786-5.34.6-2.414 2.218-8.775 4.021-11.885C6.61 10.493 7.488 9.146 8.69 8.357c1.202-.79 2.68-1.393 4.021-1.207 1.34.186 2.45 1.207 2.681 1.625.278.371.786 1.254 1.017 3.529.231 2.275.647 6.082.509 9.425-.14 3.342-.37 9.1-.555 10.307-.185 1.207-.878 2.135-1.433 2.275-.555.139-2.08 0-2.542-.697-.463-.696-.786-1.578-.694-2.507 0 0 .047-1.253-.046-2.832-.092-1.532-.462-2.229-1.525-2.646-.462-.186-1.156-.372-2.08-.372-.601 0-1.942.093-2.404.836-.277.743-1.34 5.2-1.34 5.2zm2.866-9.379c1.063-.185 3.096.186 3.836.465.693.278.555-.465.555-.465s-.046-1.671-.093-4.178c-.046-2.507-.37-2.507-.37-2.507-.693-.79-1.432.51-1.432.51-.601.604-2.728 5.293-2.728 5.293-.554 1.022.232.882.232.882zm78.532 5.154c.416 1.671.786 2.925 1.156 3.807.092.186.139.418.277.604.093.232.139.417.185.65.046.371-.092.696-.462.882-.37.185-.786.325-1.294.418a3.906 3.906 0 01-1.248.046 3.586 3.586 0 01-.832-.232c-.416-.14-.694-.418-.925-.836a8.668 8.668 0 01-.554-1.16 19.078 19.078 0 01-.786-2.786 41.342 41.342 0 01-.555-3.575 50.393 50.393 0 01-.277-3.575c-.047-1.161 0-2.09.092-2.786.093-.604.231-1.16.416-1.579.139-.278.324-.51.601-.696.324-.14.555-.279.74-.325a3.43 3.43 0 01.832-.093c.508 0 .924.093 1.201.279.278.185.416.557.416 1.207a28.73 28.73 0 00.463 6.5c1.248-.14 2.45-.325 3.605-.464 1.156-.14 2.08-.279 2.773-.325-.046-1.022-.046-1.95-.046-2.879s.093-1.718.185-2.321c.046-.418.185-.79.324-1.254.138-.418.416-.79.785-1.021.185-.14.509-.279 1.017-.418.509-.14.879-.232 1.248-.232.324-.047.694 0 1.11.139.416.14.6.371.647.79 0 .231 0 .417-.093.65-.046.231-.092.463-.138.65-.416 1.996-.555 4.27-.37 6.778a37.623 37.623 0 001.017 6.918c.139.603.092 1.021-.185 1.253a2.466 2.466 0 01-1.11.51c-.323.047-.646.094-.878.14-.277 0-.554 0-.878-.14a1.438 1.438 0 01-.74-.556c-.277-.372-.508-.882-.739-1.486-.277-.836-.6-2.275-.924-4.318-.694.232-1.71.418-3.005.557-1.387.14-2.357.232-3.05.279zM54.82 28.275c.278 1.114.555 1.996.786 2.6.047.14.093.279.185.418l.139.418c.046.278-.093.464-.324.603-.23.14-.554.232-.878.279-.324.046-.647.046-.832.046-.185 0-.416-.093-.555-.139-.277-.093-.462-.279-.647-.557-.139-.279-.277-.51-.37-.79-.184-.51-.37-1.114-.508-1.903a38.028 38.028 0 01-.37-2.414c-.092-.836-.139-1.672-.185-2.415 0-.789 0-1.439.093-1.903.046-.418.138-.79.277-1.068.093-.186.231-.371.416-.464.185-.093.37-.186.509-.232.138-.047.323-.047.554-.047.37 0 .601.047.832.186.185.14.278.371.278.836a21.554 21.554 0 00.323 4.457c.832-.093 1.664-.232 2.45-.325.786-.093 1.433-.186 1.895-.232-.046-.697-.046-1.347-.046-1.95 0-.65.046-1.161.139-1.579.046-.279.138-.557.23-.836.093-.278.278-.51.51-.696.138-.093.369-.186.692-.279.324-.093.601-.139.833-.185.23 0 .462 0 .739.092a.645.645 0 01.462.511c0 .14 0 .279-.046.464-.046.14-.046.325-.092.465-.278 1.346-.37 2.878-.278 4.643.093 1.717.324 3.296.694 4.689.092.418.046.696-.14.836a1.55 1.55 0 01-.785.325c-.231.046-.416.092-.6.092-.186 0-.37 0-.602-.092-.185-.047-.37-.186-.508-.372a4.193 4.193 0 01-.509-1.021c-.184-.557-.416-1.532-.647-2.925-.462.139-1.155.278-2.033.371-.925 0-1.618.047-2.08.093zm47.656-.65c-.462.093-.785.371-1.063.929-.277.51-.185 1.16.185 1.996.37.79 1.017 1.16 1.849 1.16.508-.046.924-.185 1.156-.51a1.86 1.86 0 00.462-1.068 2.022 2.022 0 00-.324-1.346c-.277-.418-.601-.743-1.017-.929-.369-.278-.785-.325-1.248-.232zm3.19-2.74c-.046-.417-.416-.742-1.156-1.02-.416-.186-1.017-.233-1.71-.14-.555.093-1.017.279-1.433.604-.416.325-1.156.232-2.311-.186-.416-.186-.416-.51.046-1.022.416-.51.74-.835 1.017-.975.185-.139.37-.232.555-.325.462-.232.97-.417 1.479-.464.508-.093 1.017-.093 1.525-.093.693 0 1.341.093 1.988.232.508.14 1.017.325 1.479.558.462.232.878.696 1.202 1.392.323.697.462 1.486.323 2.415-.092.928-.185 2.043-.277 3.343-.093 1.392 0 2.692.277 3.76 0 .14.046.232.093.372.046.139.046.232.046.371 0 .232-.139.372-.416.464a2.29 2.29 0 01-.74.14c-.231 0-.508-.047-.832-.093a1.465 1.465 0 01-.647-.232 1.081 1.081 0 01-.462-.557 2.281 2.281 0 01-.185-.511c-.231.14-.508.278-.786.371a4.712 4.712 0 01-1.941.418c-.693 0-1.387-.14-1.988-.371-.462-.186-.924-.418-1.294-.743-.416-.325-.693-.65-.878-1.068a2.96 2.96 0 01-.231-1.44c.046-.789.277-1.485.693-2.089.231-.325.416-.557.647-.835.185-.232.601-.604 1.248-1.022.647-.464 1.387-.696 2.265-.789.878-.093 1.71 0 2.542.279-.092-.093-.092-.325-.138-.743zM151.38 44.06c-.185.047-.323.186-.462.372-.092.232-.092.51.092.836.185.325.416.51.786.464.231 0 .37-.093.509-.232.092-.14.185-.279.185-.464.046-.186 0-.372-.139-.557a1.77 1.77 0 00-.416-.418 1.124 1.124 0 00-.555 0zm1.341-1.16c0-.186-.185-.325-.462-.418-.185-.093-.417-.093-.74-.046-.231.046-.416.139-.601.232-.185.14-.508.093-.971-.093-.185-.093-.185-.232 0-.418.185-.232.324-.371.416-.418.093-.046.139-.093.231-.139.185-.093.416-.186.648-.186.231-.046.416-.046.647-.046.277 0 .554.046.832.093.231.046.416.139.647.232.185.093.37.278.508.603.139.279.185.65.139 1.022-.046.418-.092.882-.092 1.393-.047.603 0 1.114.138 1.578 0 .047 0 .093.046.14v.139c0 .093-.046.14-.184.186-.093.046-.232.046-.324.046s-.231 0-.37-.046c-.138-.047-.231-.047-.277-.093-.093-.047-.139-.14-.185-.232-.046-.093-.046-.14-.092-.233-.093.047-.232.093-.324.14-.277.093-.555.185-.832.185-.324 0-.601-.046-.832-.139a3.441 3.441 0 01-.555-.325 1.182 1.182 0 01-.37-.464c-.092-.186-.092-.372-.092-.604 0-.325.139-.65.277-.882.093-.14.185-.232.278-.325.092-.093.277-.232.508-.418.277-.185.601-.278.971-.325.37-.046.739 0 1.063.14-.046-.047-.046-.14-.046-.279zM70.028 26.186c-.462.093-.786.371-1.063.928-.278.511-.185 1.161.185 1.997.37.789 1.016 1.16 1.849 1.16.508-.046.924-.185 1.155-.51a1.86 1.86 0 00.462-1.068 2.025 2.025 0 00-.323-1.347c-.278-.417-.601-.742-1.017-.928-.37-.279-.832-.325-1.248-.232zm3.143-2.74c-.046-.417-.416-.742-1.156-1.021-.416-.186-1.016-.232-1.71-.14-.555.094-1.017.28-1.433.604-.416.325-1.155.232-2.31-.185-.417-.186-.417-.511.045-1.022.416-.51.74-.836 1.017-.975.185-.14.37-.232.555-.325.462-.232.97-.418 1.479-.464.508-.093 1.017-.093 1.525-.093.694 0 1.34.093 1.988.232.508.14 1.017.325 1.48.557.461.232.877.697 1.2 1.393.325.697.463 1.486.325 2.414-.093.929-.185 2.043-.278 3.343-.092 1.393 0 2.693.278 3.761 0 .14.046.232.092.371.046.14.046.233.046.372 0 .232-.138.371-.416.464-.277.093-.508.14-.74.14-.23 0-.508-.047-.831-.093a1.462 1.462 0 01-.648-.233 1.083 1.083 0 01-.462-.557 2.27 2.27 0 01-.185-.51c-.23.139-.508.278-.785.371a4.71 4.71 0 01-1.942.418 5.6 5.6 0 01-1.987-.372c-.463-.185-.925-.417-1.295-.742-.416-.325-.693-.65-.878-1.068a2.96 2.96 0 01-.231-1.44c.046-.789.277-1.485.693-2.089.231-.325.416-.557.647-.836.185-.232.601-.603 1.248-1.021.648-.464 1.387-.696 2.265-.79.879-.092 1.71 0 2.543.28-.093-.094-.093-.326-.139-.744zm37.209.186c.278-.418.463-.696.694-.882a8 8 0 01.832-.696c.416-.186.786-.047 1.202.325.554.557 1.063 1.392 1.433 2.46.369 1.068.832 1.904 1.386 2.554.139.232.324.278.509.14.185-.14.369-.28.508-.465.37-.464.74-1.068 1.109-1.857.37-.79.694-1.486.925-2.043.139-.372.324-.604.508-.743.185-.14.463-.14.832 0 .324.186.601.371.832.65.232.279.463.557.694.929.231.371.323.882.185 1.532-.139.835-.463 1.625-.832 2.414-.37.79-.786 1.532-1.156 2.229-.416.696-.786 1.392-1.248 2.042-.416.65-.878 1.3-1.294 1.95-.416.558-.832 1.115-1.248 1.718a14.337 14.337 0 01-1.341 1.532c-.508.465-1.017.79-1.433.929-.323.093-.739.046-1.155-.186-.462-.232-.74-.51-.925-.789-.185-.279-.369-.557-.508-.882-.185-.325-.185-.604 0-.882.139-.232.37-.465.693-.697.278-.232.555-.464.74-.743.185-.232.37-.417.555-.603.184-.14.416-.51.739-1.022.601-.789.601-1.625-.046-2.507-.231-.418-.601-.928-1.017-1.532-.462-.603-.786-1.114-1.063-1.486l-.555-.835c-.185-.279-.323-.604-.462-.929a1.77 1.77 0 01-.185-.79c-.185-.231-.092-.51.092-.835zm12.573-1.392c.139-.14.37-.186.693-.14.463.046.971.093 1.48.093 1.063 0 2.126-.093 3.189-.325 1.063-.186 2.08-.418 3.143-.65.37-.047.694-.14 1.017-.279.324-.139.693-.185 1.017-.232.416-.046.693.047.878.325.231.325.37.697.462 1.16.093.419.047.837-.092 1.162-.092.232-.277.371-.555.51-.277.14-.462.232-.693.279-.277.093-.601.278-1.017.464-.416.186-.693.418-.878.65-.185.232-.231.604-.185 1.068.092.464.185 1.114.277 2.043.046.65.139 1.3.278 2.043.092.696.138 1.393.138 2.043 0 .325-.138.603-.323.742-.324.233-.555.372-.74.418a3.43 3.43 0 01-.832.093c-.139 0-.323 0-.508-.046-.185-.047-.324-.14-.37-.279-.093-.278-.185-.51-.277-.743-.232-.696-.37-1.578-.509-2.646-.139-1.068-.277-1.95-.462-2.693-.093-.371-.185-.743-.37-1.114-.092-.232-.37-.372-.832-.418-.508-.047-.832-.093-1.017-.14-.37-.046-.739-.046-1.155-.046-.416 0-.74-.093-1.064-.232-.323-.14-.508-.325-.554-.51-.093-.233-.139-.465-.231-.744 0-1.16 0-1.717.092-1.857zm21.632 8.867a5.84 5.84 0 01-1.386 1.44c-.786.557-1.664.882-2.635.928-.739.046-1.525-.093-2.265-.371a3.289 3.289 0 01-1.71-1.44c-.416-.743-.647-1.578-.647-2.553 0-.975.046-1.857.138-2.647 0-.232.047-.603.139-1.068.093-.51.185-.975.324-1.485.138-.511.277-.975.462-1.347.185-.371.416-.603.693-.603.416-.047.878 0 1.433.093.555.092.971.325 1.248.696.093.14.093.418-.046.79l-.277.835a11.91 11.91 0 00-.463 2.368c-.092.975-.092 1.81.047 2.46.138.79.554 1.208 1.155 1.161.601 0 1.202-.464 1.803-1.346.277-.372.462-.836.647-1.393.092-.557.185-1.3.277-2.229.093-.928.093-1.671.047-2.321 0-.14-.047-.325-.047-.51 0-.186 0-.372.093-.511a.956.956 0 01.185-.279c.231-.232.508-.418.924-.557a2.097 2.097 0 011.156-.186c.046 0 .092 0 .138.047h.232c.323.046.6.139.832.278.184.14.277.464.277.882-.093 1.532-.046 3.157.139 4.968.184 1.81.554 3.436 1.016 4.782.047.14.093.325.185.465.093.139.093.325.139.464 0 .278-.092.51-.324.603-.231.14-.554.186-.878.186-.323 0-.693 0-1.017-.093a4.168 4.168 0 01-.739-.185c-.278-.14-.463-.372-.601-.65a7.045 7.045 0 01-.37-.883c-.139-.185-.231-.464-.324-.789zm8.552-5.525c.924-1.3 1.571-2.182 1.987-2.646a6.061 6.061 0 011.433-1.254c.231-.14.462-.278.74-.418.277-.139.508-.185.786-.139.277.046.693.279 1.201.696.509.418.601.836.232 1.161-.093.093-.185.186-.324.232-.139.093-.277.14-.37.232a9.21 9.21 0 00-1.756 1.347c-.509.51-.971 1.021-1.433 1.532.323.232.786.557 1.34.975.555.418 1.11.836 1.71 1.3.555.418 1.11.836 1.572 1.254.462.371.786.65.971.835.416.418.277.882-.278 1.393-.6.51-1.016.836-1.34.882-.277.047-.647-.046-1.063-.371-.416-.325-.832-.65-1.294-.975-.416-.372-.879-.743-1.295-1.16a13.197 13.197 0 00-1.433-1.254c-.462-.372-.832-.558-1.016-.604.323 1.393.647 2.46 1.016 3.204.047.139.139.278.185.417a.75.75 0 01.139.418c.046.279-.092.465-.324.604-.277.14-.554.232-.924.278-.37.047-.647.047-.878.047-.231-.047-.416-.047-.555-.14-.277-.092-.508-.278-.693-.557-.185-.278-.324-.51-.416-.789a16.61 16.61 0 01-.555-1.903c-.185-.79-.277-1.579-.416-2.415a42.136 42.136 0 01-.231-2.925c-.046-1.114-.046-1.95 0-2.414.092-.418.185-.79.323-1.068a.834.834 0 01.416-.464c.232-.093.416-.186.601-.232.185-.047.37-.047.647-.047.37 0 .648.093.879.186.231.14.323.371.323.79-.092.696-.046 1.95.093 3.992zm12.434 2.275c-.231.697-.093 1.44.508 2.229.555.743 1.341.928 2.311.557.601-.232 1.017-.604 1.295-1.068.277-.464.416-.975.416-1.486 0-1.16-.601-1.857-1.896-2.089-1.294-.232-2.172.371-2.634 1.857zm-2.589-1.021c.462-.882.971-1.625 1.526-2.182.231-.186.369-.325.416-.418.878-.79 1.895-1.3 3.004-1.625.971-.232 1.895-.279 2.773 0 .416.139.832.371 1.248.696.416.325.74.697.971 1.068.231.464.37 1.021.416 1.718.093 1.021 0 1.903-.277 2.693a6.06 6.06 0 01-.74 1.439 14.74 14.74 0 01-.97 1.254c-.509.557-1.064.975-1.711 1.392-.647.372-1.34.604-2.08.65a5.838 5.838 0 01-2.218-.278 5.945 5.945 0 01-1.526-.79c-.462-.324-.786-.742-1.063-1.253-.231-.51-.416-1.068-.416-1.764.046-.929.231-1.811.647-2.6zm-85.42 14.671l2.45.047c.092.046.231.092.324.139a.56.56 0 01.23.232c.047.093.093.325.093.604 0 .278-.092.417-.323.417-.047 0-.37-.046-.925-.092-.555-.047-1.063-.047-1.433-.047-.046.279-.046.836-.046 1.625 0 .79.046 1.393.139 1.764 0 .047.046.14.046.186 0 .047.046.14.046.186 0 .14-.046.186-.185.232-.138.046-.277.046-.508.046-.185 0-.324 0-.416-.046-.093-.046-.139-.046-.185-.093-.139-.046-.185-.186-.231-.278-.047-.14-.093-.233-.139-.372a4.293 4.293 0 01-.092-.882v-1.114c0-.372.046-.743.092-1.068.046-.325.093-.604.185-.836.046-.186.139-.325.185-.464.046-.093.138-.14.23-.186.047 0 .093 0 .186-.046.046.093.139.093.277.046zm6.194 2.925c-.092.325-.046.65.231 1.022.278.325.601.417 1.063.232.278-.093.463-.279.601-.511.139-.232.185-.418.185-.65 0-.51-.277-.836-.832-.975-.6-.093-1.017.186-1.248.882zm-1.156-.51c.232-.418.463-.743.694-.976.092-.092.185-.139.185-.185a3.367 3.367 0 011.386-.743c.416-.14.832-.14 1.248 0 .185.046.37.186.601.325.185.14.324.325.416.51.093.186.185.465.185.79.046.464 0 .882-.138 1.253a4.24 4.24 0 01-.324.65c-.139.186-.277.418-.462.558a5.334 5.334 0 01-.786.65c-.277.185-.6.278-.97.325-.37.046-.694 0-1.018-.14-.23-.093-.462-.185-.693-.371a1.083 1.083 0 01-.462-.557c-.139-.232-.185-.511-.185-.79.046-.51.139-.928.323-1.3zm10.17.882c.138-.372.092-.743-.14-1.161-.23-.418-.554-.557-1.016-.418a1.313 1.313 0 00-.693.464 2.056 2.056 0 00-.278.743c-.046.279.046.557.185.743.139.232.37.325.601.418.231.046.462.046.74-.093.277-.14.462-.371.6-.696zm-2.404-2.229a4.84 4.84 0 01.555-.464c.277-.186.647-.325.97-.372.37-.046.694 0 1.063.093.278.093.509.186.74.325.231.14.416.325.555.604.138.232.184.51.23.835.047.465-.046.883-.184 1.3l-.278.558a2.062 2.062 0 01-.37.51c-.046.093-.138.14-.184.186-.416.371-.878.65-1.387.836-.462.139-.878.185-1.294.046h-.093c-.046.14-.092.79-.138 2.043-.046.093-.139.186-.185.232a.665.665 0 01-.324.093h-.323a.867.867 0 01-.37-.093c-.092-.046-.139-.186-.092-.418.092-1.857.092-3.25 0-4.039-.047-.836-.185-1.579-.416-2.229-.047-.046-.047-.139-.093-.185-.046-.093-.046-.14-.046-.232 0-.14.046-.233.139-.279a2.14 2.14 0 01.416-.14h.462c.139 0 .277.047.323.094.093.046.185.185.278.278-.046.14 0 .279.046.418zm7.026 1.857c-.093.325-.046.65.23 1.022.278.325.602.417 1.064.232.277-.093.462-.279.601-.511.139-.232.185-.418.185-.65 0-.51-.277-.836-.832-.975-.647-.093-1.063.186-1.248.882zm-1.202-.51c.231-.418.462-.743.693-.976.093-.092.185-.139.185-.185a3.367 3.367 0 011.387-.743c.416-.14.832-.14 1.248 0 .185.046.37.186.601.325.185.14.323.325.416.51.092.186.185.465.185.79.046.464 0 .882-.139 1.253a4.264 4.264 0 01-.323.65c-.139.233-.278.418-.463.558a5.324 5.324 0 01-.785.65c-.278.185-.601.278-.971.325-.37.046-.694 0-1.017-.14-.231-.093-.462-.185-.693-.371a1.083 1.083 0 01-.463-.557c-.138-.232-.184-.511-.184-.79.046-.51.138-.928.323-1.3zm9.291 1.949h1.387c-.047-.417-.139-1.439-.232-3.157l-.554.093a13.878 13.878 0 01-.601 3.064zm-2.034.186c.139-.046.277-.232.37-.51.277-.65.462-1.3.601-1.95.138-.697.185-1.161.231-1.393.046-.186.092-.372.139-.511.046-.093.092-.186.184-.232.093-.047.185-.093.232-.093.046 0 .138-.047.277-.047 1.571 0 2.403 0 2.496-.046.092 0 .231 0 .37.046.138.047.185.14.231.233v.232c0 .093-.046.139-.046.232-.139.65-.185 1.393-.139 2.228.046.697.139 1.3.277 1.811.278.047.509.093.694.186.138.046.184.14.277.278 0 .047.046.093.046.093 0 .047.046.093.046.14.047.417.047.696.047.835 0 .14 0 .325-.047.557 0 .047-.046.093-.138.14-.139.093-.324.093-.555.093-.046 0-.139-.047-.139-.093-.138-.325-.277-.557-.508-.65-.231-.14-.509-.186-.878-.186-.555 0-1.017-.046-1.479-.046h-1.248c-.232 0-.463.046-.648.185-.185.093-.323.325-.462.65-.046.047-.092.093-.139.093-.231.047-.416 0-.508-.093-.092-.046-.139-.093-.139-.139 0-.232 0-.371-.046-.418v-.928c0-.14.046-.233.046-.325.047-.093.185-.186.416-.233-.046-.092.047-.139.139-.139zm12.249-4.55c.231.047.416.14.555.186a.382.382 0 01.231.371v.372c0 .093-.046.185-.139.325-.092.185-.231.278-.323.278-.093 0-.185 0-.278-.046-.092-.047-.185-.047-.277-.093a2.887 2.887 0 00-.74-.093c-.323 0-.6.093-.878.186-.277.093-.508.325-.739.603-.231.279-.231.743 0 1.393.092.325.323.557.647.697.323.139.693.185 1.017.139.277-.046.508-.186.739-.51.231-.326.601-.326 1.156 0 .185.139.185.324-.046.603-.232.278-.416.464-.555.557-.093.046-.185.14-.277.186-.232.139-.509.185-.74.232h-.74c-.323-.047-.647-.093-.97-.232a5.052 5.052 0 01-.694-.372c-.231-.139-.416-.371-.601-.603-.323-.418-.508-.882-.647-1.393-.185-.79.047-1.44.555-1.997.277-.278.601-.464.925-.603.369-.14.693-.232 1.016-.279.278-.046.555-.046.832-.046.416.046.694.093.971.14zm4.484 1.857c.416-.603.693-.975.924-1.207a2.44 2.44 0 01.647-.557c.093-.046.231-.14.324-.186a.489.489 0 01.37-.046c.138 0 .323.14.554.325.231.186.278.371.093.557l-.139.14c-.046.046-.139.046-.185.092a3.888 3.888 0 00-.786.604c-.231.232-.416.464-.647.696.139.093.37.232.601.418.278.186.509.371.786.604.277.185.508.371.74.557.231.185.369.325.462.371.185.186.138.418-.139.65-.277.232-.462.372-.601.372-.138.046-.277-.047-.508-.186-.185-.14-.37-.279-.601-.464-.185-.186-.37-.325-.601-.511a8.074 8.074 0 00-.647-.557c-.231-.14-.37-.232-.462-.279.138.604.323 1.114.462 1.486.046.046.046.14.092.186.047.046.047.139.047.185 0 .14-.047.232-.139.279l-.416.14c-.185 0-.277.046-.416 0-.093 0-.185-.047-.277-.047-.139-.047-.232-.14-.324-.232a1.4 1.4 0 01-.185-.372 8.795 8.795 0 01-.277-.836 8.462 8.462 0 01-.185-1.067 10.892 10.892 0 01-.093-1.347c-.046-.51-.046-.882 0-1.114.047-.186.093-.372.139-.464.046-.093.093-.186.185-.186a.646.646 0 01.277-.093h.278c.185 0 .277.046.369.093.093.046.139.186.139.371.046.14.093.697.139 1.625zm6.841 1.068c-.093.325-.046.65.231 1.022.277.325.601.417 1.063.232.277-.093.462-.279.601-.511.139-.232.185-.418.185-.65 0-.51-.278-.836-.832-.975-.647-.093-1.063.186-1.248.882zm-1.202-.51c.231-.418.462-.743.693-.976.093-.092.185-.139.185-.185a3.365 3.365 0 011.387-.743c.416-.14.832-.14 1.248 0 .185.046.37.186.601.325.185.14.323.325.416.51.092.186.185.465.185.79.046.464 0 .882-.139 1.253a4.181 4.181 0 01-.324.65c-.138.233-.277.418-.462.558a5.29 5.29 0 01-.786.65c-.277.185-.6.278-.97.325-.37.046-.694 0-1.017-.14-.231-.093-.462-.185-.693-.371a1.083 1.083 0 01-.463-.557c-.138-.232-.185-.511-.185-.79.047-.51.139-.928.324-1.3zm9.337-2.601h-.231c-.093 0-.139 0-.231-.046-.093-.046-.185-.046-.278-.093a71.345 71.345 0 00-.277-.14c-.046 0-.046-.046-.092-.046-.047 0-.047-.046-.093-.046s-.046-.046-.092-.046-.046-.047-.093-.047l-.046-.046c-.046 0-.046-.047-.046-.047-.046-.046-.139-.093-.185-.139-.046-.046-.046-.14.092-.232h.093l.046-.047.046-.046c.139-.14.231-.186.278-.14.046.047.138.094.323.186 0 0 .046 0 .046.047h.047c.046 0 .046.046.092.046.046.047.139.047.139.047a.46.46 0 01.138.046h.37c.046 0 .046 0 .093-.046.046 0 .092-.047.092-.093.046-.047.093-.047.093-.093l.046-.046.092-.093.093-.093c.092-.093.138-.14.185-.14.046-.046.092 0 .184.093l.093.093.092.093.047.047.046.046.046.046.046.047c.093.093.093.14.093.14 0 .046-.047.092-.139.185 0 0-.046.046-.139.093l-.138.139c-.047.046-.093.093-.185.093-.046.046-.139.093-.231.14-.093.046-.185.092-.231.092-.047 0-.139.046-.232.046h-.092zm1.063 4.597c-.185.232-.37.464-.647.65-.37.278-.74.418-1.202.418-.323 0-.693-.047-1.017-.186a1.803 1.803 0 01-.785-.65c-.185-.325-.278-.696-.278-1.16 0-.419.046-.836.093-1.208 0-.093.046-.278.046-.51l.139-.697a2.32 2.32 0 01.231-.604c.092-.185.185-.278.323-.278.185 0 .416 0 .647.046.231.047.463.14.555.325.046.047.046.186-.046.372-.046.185-.093.325-.139.371-.092.279-.185.65-.231 1.068-.046.464-.046.836 0 1.114.046.372.231.557.508.557.278 0 .555-.185.832-.603.139-.186.232-.372.278-.65.046-.279.092-.604.138-1.022.047-.417.047-.789 0-1.067 0-.093 0-.14-.046-.233 0-.092 0-.185.046-.232 0-.046.047-.093.093-.139.092-.093.231-.186.416-.279.185-.092.37-.092.555-.092h.138c.139 0 .278.046.37.139.092.046.139.186.139.418-.047.696-.047 1.439.046 2.275.092.835.231 1.578.462 2.182.046.046.046.14.093.232.046.093.046.14.046.186 0 .139-.046.232-.139.278a.918.918 0 01-.416.093c-.139 0-.323 0-.462-.046-.139-.047-.277-.047-.324-.093-.138-.047-.231-.186-.277-.325-.046-.14-.139-.279-.185-.372.093-.046.046-.139 0-.278zm8.782-2.554c.416-.603.694-.975.925-1.207a2.44 2.44 0 01.647-.557c.093-.046.231-.14.324-.186a.487.487 0 01.369-.046c.139 0 .324.14.555.325.231.186.277.371.093.557l-.139.14c-.046.046-.139.046-.185.092a3.86 3.86 0 00-.786.604c-.231.232-.416.464-.647.696.139.093.37.232.601.418.277.186.508.371.786.604.277.232.508.371.739.557.231.185.37.325.463.371.184.186.138.418-.139.65-.277.232-.462.372-.601.372-.139.046-.277-.047-.508-.186-.185-.14-.37-.279-.601-.464-.185-.186-.37-.325-.601-.511a7.895 7.895 0 00-.647-.557c-.232-.14-.37-.232-.463-.279.139.604.324 1.114.463 1.486.046.046.046.14.092.186.046.046.046.139.046.185 0 .14-.046.232-.138.279l-.416.14c-.185 0-.278.046-.416 0-.093 0-.185-.047-.278-.047-.138-.047-.231-.14-.323-.232a1.37 1.37 0 01-.185-.372 8.773 8.773 0 01-.278-.836 8.641 8.641 0 01-.184-1.067 10.7 10.7 0 01-.093-1.347c-.046-.51-.046-.882 0-1.114.046-.186.093-.372.139-.464.046-.093.092-.186.185-.186a.646.646 0 01.277-.093h.277c.185 0 .278.046.37.093.093.046.139.186.139.371.046.14.092.697.138 1.625zm22.881-.557c.416-.603.693-.975.924-1.207.185-.232.416-.418.647-.557.093-.047.232-.14.324-.186.139-.046.231-.093.37-.046.138 0 .323.139.554.325.232.185.278.371.093.557l-.139.14c-.046.046-.138.046-.185.092a3.847 3.847 0 00-.785.604c-.185.185-.416.464-.648.696.139.093.37.232.601.418.278.186.509.371.786.603.277.233.509.372.74.558.231.185.369.325.462.371.185.186.139.418-.139.65-.277.232-.462.371-.601.371-.138.047-.277-.046-.508-.185-.185-.14-.37-.279-.601-.465-.185-.185-.37-.325-.601-.51a7.895 7.895 0 00-.647-.557c-.231-.14-.37-.233-.462-.279.138.604.323 1.114.462 1.486.046.046.046.139.092.185.047.047.047.14.047.186 0 .14-.047.232-.139.279l-.416.139c-.185 0-.277.046-.416 0-.092 0-.185-.046-.277-.046-.139-.047-.231-.14-.324-.233a1.4 1.4 0 01-.185-.371 8.795 8.795 0 01-.277-.836 8.46 8.46 0 01-.185-1.068 10.908 10.908 0 01-.092-1.346c-.047-.51-.047-.882 0-1.114.046-.186.092-.372.138-.465.046-.092.093-.185.185-.185.093-.047.185-.093.277-.093h.278a.71.71 0 01.37.093c.092.046.138.185.138.371.046.14.046.697.139 1.625zm-6.009 1.347c-.093.325-.046.65.231 1.021.277.325.601.418 1.063.232.277-.093.462-.278.601-.51.139-.233.185-.418.185-.65 0-.511-.277-.836-.832-.976-.601-.092-1.017.186-1.248.883zm-1.156-.465c.231-.418.463-.743.694-.975.092-.093.185-.139.185-.185a3.368 3.368 0 011.386-.743c.416-.14.832-.14 1.248 0 .185.046.37.185.601.325.185.139.324.325.416.51.093.186.185.465.185.79.046.464 0 .882-.139 1.253a4.273 4.273 0 01-.323.65c-.139.232-.278.418-.462.557a5.387 5.387 0 01-.786.65c-.278.186-.601.279-.971.325-.37.047-.693 0-1.017-.139-.231-.093-.462-.186-.693-.371a1.081 1.081 0 01-.462-.557c-.139-.233-.185-.511-.185-.79.046-.557.138-.975.323-1.3zm-5.962-2.043c.046-.046.138-.092.323-.046.231.046.416.046.647.046a7.13 7.13 0 001.433-.139c.462-.093.971-.186 1.433-.278.139-.047.324-.093.462-.14.139-.046.324-.093.463-.139.184 0 .323.046.416.14.092.139.184.324.184.51.047.186 0 .371-.046.557a.554.554 0 01-.231.232 2.19 2.19 0 00-.323.14c-.139.046-.278.139-.463.185a1.618 1.618 0 00-.416.279c-.092.14-.092.278-.092.464.046.186.092.51.138.929.047.278.047.603.139.928.093.325.093.65.046.929 0 .14-.046.278-.138.325-.139.093-.231.14-.324.186-.092 0-.231.046-.37.046-.046 0-.138 0-.231-.046-.092 0-.138-.047-.185-.14a2.271 2.271 0 00-.138-.325 6.932 6.932 0 01-.231-1.207c-.047-.464-.139-.882-.185-1.207-.047-.14-.093-.325-.139-.51-.046-.094-.185-.186-.37-.186-.231-.047-.37-.047-.462-.047-.185 0-.324 0-.508-.046-.185 0-.324-.047-.509-.093a.472.472 0 01-.277-.232c-.046-.093-.046-.186-.093-.325 0-.465 0-.697.047-.79zM28.288 27.207c.37-.836.232-1.764-.277-2.786-.555-1.021-1.387-1.3-2.45-.928-.74.232-1.294.65-1.617 1.16a4.556 4.556 0 00-.648 1.718c-.046.697.093 1.3.463 1.811.37.51.832.836 1.433.975a2.38 2.38 0 001.756-.232c.508-.279 1.017-.836 1.34-1.718zm-5.777-5.34c.416-.37.878-.742 1.34-1.067a6.33 6.33 0 012.357-.882 6.502 6.502 0 012.497.186c.6.185 1.201.464 1.756.835.555.372.97.836 1.294 1.393.277.557.462 1.207.555 1.997.092 1.114-.046 2.135-.462 3.064-.185.464-.463.928-.694 1.346-.277.418-.554.836-.924 1.207l-.462.465c-.971.928-2.08 1.625-3.329 1.996-1.109.372-2.126.418-3.143.14-.046 0-.138-.047-.184-.047-.093.279-.185 1.95-.324 4.921-.139.233-.277.418-.462.511a3.887 3.887 0 01-.786.232 2.455 2.455 0 01-.832 0c-.37 0-.647-.093-.832-.278-.231-.14-.277-.465-.277-.975.184-4.504.184-7.754.046-9.75-.139-1.997-.462-3.761-.97-5.293-.047-.14-.14-.325-.186-.51-.046-.187-.092-.326-.092-.512 0-.325.138-.557.37-.696.277-.14.6-.232.97-.279.37-.046.74-.046 1.063 0 .37.047.601.14.786.233.277.139.462.371.647.696.046.418.185.743.278 1.068z" fill="#0F2A44"/><path d="M202.133 43.225c-1.756-1.718-1.71-9.286-.508-11.004 1.525-2.135 12.156-2.414 12.018-5.896-.093-3.018-7.442-2.6-10.447-6.129-3.097-3.714-1.479-13.789-5.778-14.717-3.559-.79-8.042 8.821-11.602 10.446-4.945 2.275-9.799-1.625-11.786.604-2.589 2.878 7.21 9.378 7.349 11.421.139 2.043-2.727 7.104-5.362 8.821-.786-.092-1.849-.046-2.219.65-.647 1.161.232 2.972 2.543 3.25 3.189.325 11.001-4.55 13.635-3.992 2.173.464 5.732 9.796 10.031 10.075 3.605.232 4.206-2.693 3.836-3.158-.508-.65-1.109-.557-1.71-.371z" fill="#54C2E8"/><path d="M201.532 32.36c-1.202 1.719-1.248 9.286.509 11.004a1.34 1.34 0 01.416-.093l-.509.233s-.739.139-1.34-.14c-1.202-.51-3.652-11.282-1.711-13.418 1.942-2.135 12.804-1.857 12.85-3.435.047-1.625-6.378-2.507-9.937-5.061-3.56-2.554-2.959-13.093-4.9-13.79-1.895-.696-6.055 6.5-9.383 8.961-3.883 2.925-10.817-.51-11.695.836-1.017 1.532 7.766 7.057 7.673 10.029-.092 2.971-3.882 7.985-6.979 9.564l-.555-.232c2.635-1.764 5.362-6.732 5.269-8.729-.138-2.043-9.938-8.543-7.349-11.421 1.987-2.182 6.887 1.671 11.787-.604 3.559-1.671 7.996-11.282 11.602-10.446 4.298.975 2.681 11.003 5.778 14.718 2.958 3.528 10.307 3.157 10.446 6.128.139 3.482-10.493 3.761-11.972 5.897z" fill="#0B90CA"/><path d="M200.007 46.754c-4.345-.279-7.904-9.611-10.031-10.075-2.634-.558-10.446 4.317-13.635 3.992-2.311-.232-3.19-2.089-2.543-3.25.232-.464.786-.65 1.387-.696-.323.51-.508 1.393 1.156 1.996 2.912 1.068 10.585-6.778 14.467-5.664 3.883 1.114 5.409 11.468 10.678 12.443 1.017.186 1.849-.743 2.45-1.764.185.603-.555 3.203-3.929 3.018z" fill="#0B90CA"/><path d="M213.458 26.696c-.786-1.996-8.552-3.482-11.371-5.989-3.097-2.74-1.71-12.675-4.438-14.253-2.727-1.579-8.089 8.914-11.463 10.26-5.084 1.997-9.337-.743-11.879-.325.046-.046-.462 0-.416-.046 1.987-2.182 6.887 1.671 11.787-.604 3.559-1.671 7.996-11.282 11.602-10.446 4.298.975 2.681 11.003 5.778 14.718 2.865 3.389 10.723 3.853 10.4 6.685z" fill="#54C2E8"/><path d="M177.774 35.193c1.941-2.229 3.605-5.572 3.513-7.15-.139-2.043-9.938-8.543-7.35-11.422.139.697 0 .975 1.248 2.74 1.248 1.764 7.396 5.803 7.119 8.589-.185 1.95-2.589 5.34-4.53 7.243zm23.897 11.467a5.109 5.109 0 01-1.757.186c-4.345-.278-7.904-9.61-10.03-10.075-2.635-.557-10.446 4.318-13.636 3.993-2.311-.232-3.189-2.089-2.542-3.25.139.697.647 1.765 2.404 2.182 2.773.65 11.463-5.478 14.56-4.271 2.958 1.114 4.299 9.61 11.001 11.236zm-.139-14.346c-1.202 1.718-1.248 9.286.509 11.004.369-.14.785-.186 1.155-.047l-1.664.325c-2.08-1.392-2.958-10.817-1.017-12.721 2.45-2.414 10.262-1.532 13.035-4.41.139 3.481-10.492 3.714-12.018 5.85z" fill="#2D5BA5"/><path d="M196.078 8.96c-.509.14-.231.604-.046.883.138.232.046.51-.139.603-.37.233-.786.604-.786 1.068 0 .14.046.279.093.418a.424.424 0 01-.093.51c-.508.465-1.109 1.208-.693 1.858.185.325.462.557.786.696.277.14.647.14.97.093.093 0 .185-.046.231-.046.185 0 .416.14.416.325.047.278-.184.418-.416.464-.184.093-.416.14-.647.186-.924.14-1.849-.372-2.311-1.16-.647-1.022-.185-2.23.694-2.926a.997.997 0 01.369-.232l-.185.604c-.231-.465-.231-1.161.047-1.625.231-.465.601-.79 1.063-1.068l-.185.65a2.105 2.105 0 01-.231-1.207c.092-.418.462-.743.878-.836.046 0 .092 0 .185-.047.092 0 .231.093.231.186-.046.14-.231.557-.231.604zm5.87 16.158c.231.046.601.14.786.093l-.092.093c.138-.279.323-.558.647-.743.924-.604 1.941-.093 2.681.557l-.601-.093c1.017-.325 2.357-.418 2.912.696l-.694-.092c.74-.883 1.618-1.208 2.635-.465l-.786-.046c.555-.418 1.479-.464 1.988.093.139.139.277.325.37.51.138.279-.231.558-.463.325-.231-.278-.6-.464-.924-.232-.092.047-.185.093-.231.186l-.786-.046a.741.741 0 00-.185-.325c-.323-.233-.786.139-.97.464-.139.325-.601.278-.648-.047-.138-.696-1.016-.557-1.525-.278a.978.978 0 00-.231.14c-.046.046-.092.046-.139.046l-.416-.14c-.277-.278-.601-.603-1.017-.65-.416-.046-.647.14-.878.511 0 .046-.046.046-.092.093-.463.371-1.017.232-1.572.093-.508-.14-.277-.882.231-.743zm-18.905-2.739c-.046-.233-.277-.929-.324-1.115 0-.139 0-.371-.092-.51-.324-.65-1.156-.465-1.756-.325-.185.046-.37-.14-.278-.325a1.7 1.7 0 00-.231-.511c-.277-.464-.739-.697-1.248-.464-.185.092-.416 0-.508-.233 0-.046-.047-.092-.093-.185-.092-.14-.231-.325-.37-.418-.185-.093-.323-.093-.554.046-.185.093-.416.047-.509-.139-.231-.464.37-.696.786-.696.231 0 .508.046.693.185.37.232.601.557.74.975l-.509-.232c1.202-.51 2.219.372 2.543 1.532l-.462-.278a2.6 2.6 0 01.832-.14c1.109-.092 1.987.697 1.987 1.858l-.092-.325.693.464c.37.278.462.79.185 1.16-.324.465-1.248.326-1.433-.324zm4.9 7.939c-.093.046-.231.093-.278.14l-.138.046c-.047 0-.093.046-.093.046l-.508.14c-.37-.047-.694 0-.971.278-.324.278-.508.743-.739 1.114l-.509.279c-1.063-.093-1.248.696-1.525 1.532-.047.186-.185.325-.37.325-1.109.093-1.618.51-1.71 1.625l-.601.464h-.046c-.37-.093-.786-.046-.971.279a1.612 1.612 0 00-.185.418c-.046.185-.185.278-.37.232-.416-.14-.185-.65-.092-.975.277-.743 1.155-1.022 1.895-.882l-.601.464c-.092-1.579 1.156-2.74 2.727-2.368l-.462.371c-.139-1.207.693-2.646 2.08-2.367.185.046.323.092.508.185l-.508.279c.046-.279.092-.604.231-.882.37-1.022 1.618-1.672 2.589-1.022l-.509.14c.093-.233.185-.372.277-.558.047-.092.093-.185.139-.232.185-.325.601-.371.878-.185.463.232.37.975-.138 1.114zm6.378 1.718c.648-.372 1.387.046 1.618.696l-.323-.186c1.987 0 2.681 1.811 1.294 3.204l-.185-.604c1.71.325 2.588 2.043 1.017 3.204l-.139-.65c1.341.418 1.757 1.904.647 2.832l.093-.325c.046.232.185.464.277.65.231.418.509.836.832 1.207.185.186.324.372.509.511.231.186.231.557.046.79-.185.231-.601.231-.786 0-.601-.604-1.063-1.347-1.387-2.183l-.277-.836c-.046-.139 0-.232.092-.325.37-.557.37-.975-.138-1.392-.139-.093-.231-.186-.37-.325a.357.357 0 01-.046-.465c.878-1.021.277-1.393-.647-1.95l-.139-.093c-.139-.092-.231-.278-.092-.464.231-.325.369-.743.416-1.114 0-.279-.139-.418-.416-.604-.278-.185-.601-.278-.879-.418-.046-.046-.092-.092-.092-.139-.093-.14-.185-.278-.277-.325-.093-.046-.139-.046-.232 0-.416.372-.924-.325-.416-.696zm7.305-4.654c.252-.04.431-.236.399-.438-.031-.203-.261-.335-.513-.296-.253.04-.431.236-.4.439.032.203.261.335.514.295zM196.54 7.846a.37.37 0 000-.742.37.37 0 000 .742z" fill="#86CFE8"/><path d="M196.17 10.075c.307 0 .555-.25.555-.557a.556.556 0 10-1.109 0c0 .308.248.557.554.557zm.231 2.275c-.323.186-.97.232-1.109 0s.416-.232.74-.418c.323-.186.323-.696.601-.603.277.092.138.835-.232 1.021z" fill="#0B90CA"/><path d="M196.17 9.704a.37.37 0 00.37-.372.37.37 0 10-.739 0 .37.37 0 00.369.372zm-.255 1.904c.179-.01.317-.143.308-.296-.008-.154-.16-.27-.338-.26-.179.01-.316.142-.308.296.009.153.16.27.338.26z" fill="#86CFE8"/><path d="M196.597 14.545c.166-.593-.198-1.214-.812-1.388-.614-.173-1.247.166-1.413.758-.166.593.197 1.214.812 1.388.614.173 1.247-.166 1.413-.758z" fill="#0B90CA"/><path d="M195.754 14.579c.307 0 .555-.25.555-.558a.556.556 0 10-1.109 0c0 .308.248.558.554.558z" fill="#86CFE8"/><path d="M204.259 26.836c.46 0 .832-.374.832-.836a.834.834 0 00-.832-.836.834.834 0 00-.832.836c0 .462.373.836.832.836zm-22.325-4.922a.834.834 0 00.832-.835.834.834 0 00-.832-.836.834.834 0 00-.832.836c0 .461.372.835.832.835zm4.714 10.307c.46 0 .832-.374.832-.835a.834.834 0 00-.832-.836.834.834 0 00-.832.836c0 .461.373.835.832.835zm-2.311 1.765a.788.788 0 00.786-.79.788.788 0 00-.786-.789.788.788 0 00-.786.79c0 .435.352.789.786.789zm-2.126 1.857a.788.788 0 00.786-.79.788.788 0 00-.786-.789.788.788 0 00-.786.79c0 .435.352.789.786.789z" fill="#0B90CA"/><path d="M204.352 26.325a.51.51 0 00.508-.51.509.509 0 10-1.017 0c0 .281.228.51.509.51zm-22.372-5.479a.37.37 0 000-.742.37.37 0 000 .742zm4.484 10.725a.37.37 0 00.369-.371.37.37 0 10-.739 0 .37.37 0 00.37.371z" fill="#86CFE8"/><path d="M195.893 35.1c.46 0 .832-.374.832-.836a.834.834 0 00-.832-.835.834.834 0 00-.832.835c0 .462.372.836.832.836z" fill="#0B90CA"/><path d="M196.032 34.171a.324.324 0 00.323-.325.324.324 0 10-.323.325z" fill="#86CFE8"/><path d="M197.095 37.84a.834.834 0 00.832-.836.834.834 0 00-.832-.836.834.834 0 00-.832.836c0 .461.372.835.832.835z" fill="#0B90CA"/><path d="M196.761 36.919c.176-.026.305-.15.286-.277-.018-.127-.177-.209-.353-.183-.177.026-.306.15-.287.277.018.127.177.209.354.183zm.966 2.132c.156-.087.232-.25.169-.361-.062-.112-.239-.131-.395-.043-.156.087-.232.25-.169.36.062.113.239.132.395.044zm-13.667-5.994a.324.324 0 00.323-.325.324.324 0 10-.647 0c0 .18.145.325.324.325z" fill="#86CFE8"/><path d="M179.761 20.429c.409 0 .74-.333.74-.743a.741.741 0 00-.74-.743.741.741 0 00-.739.743c0 .41.331.743.739.743zm-1.987-1.022a.741.741 0 00.739-.743.741.741 0 00-.739-.743.741.741 0 00-.74.743c0 .41.331.743.74.743z" fill="#0B90CA"/><path d="M179.761 19.732a.324.324 0 000-.65.324.324 0 00-.323.325c0 .18.144.325.323.325z" fill="#86CFE8"/><path d="M206.709 26.836a.695.695 0 000-1.393.695.695 0 00-.693.696c0 .385.31.697.693.697z" fill="#0B90CA"/><path d="M206.848 26.232a.232.232 0 000-.464.231.231 0 00-.231.232c0 .128.103.232.231.232z" fill="#86CFE8"/><path d="M208.974 26.975a.695.695 0 00.693-.696.695.695 0 00-.693-.697.695.695 0 00-.693.697c0 .384.31.696.693.696zm1.803-.325a.51.51 0 00.508-.51.509.509 0 10-1.017 0c0 .281.228.51.509.51z" fill="#0B90CA"/><path d="M209.113 26.325a.185.185 0 100-.37.185.185 0 000 .37zm-21.633-5.989c-.832-1.161-.6-2.879.324-3.9 1.017-1.161 2.912-1.068 4.114-.186.832.604 1.155 1.671.971 2.646a.233.233 0 01-.463 0c-.185-.742-.277-1.671-.924-2.089-.832-.51-2.265-.51-3.097.232-.37.372-.693.882-.878 1.44-.093.557-.093 1.207.185 1.717.092.14-.139.279-.232.14zm7.396 1.393c-.416-1.115-.139-2.554.832-3.343 1.387-1.207 3.559-.79 4.438.835.184.372.323.743.369 1.115 0 .139-.092.278-.185.278a.255.255 0 01-.231-.139c-.508-.882-1.109-1.579-2.08-1.764a2.318 2.318 0 00-2.311 1.021c-.37.51-.508 1.207-.508 1.904-.093.185-.278.232-.324.093z" fill="#86CFE8"/><path d="M190.023 21.682a2.64 2.64 0 002.634-2.646 2.64 2.64 0 00-2.634-2.647 2.64 2.64 0 00-2.635 2.647 2.64 2.64 0 002.635 2.646z" fill="#fff"/><path d="M189.283 21.775a2.8 2.8 0 01-1.941-3.529 2.784 2.784 0 013.513-1.95c1.525.465 2.403 1.997 1.941 3.529-.462 1.486-2.034 2.368-3.513 1.95zm1.387-5.06c-1.294-.372-2.589.37-2.958 1.67-.37 1.3.369 2.6 1.664 2.972 1.294.372 2.588-.371 2.958-1.671.37-1.3-.37-2.647-1.664-2.972z" fill="#0F2A44"/><path d="M190.023 20.893a1.853 1.853 0 001.849-1.857 1.853 1.853 0 00-1.849-1.857 1.853 1.853 0 00-1.849 1.857c0 1.025.828 1.857 1.849 1.857z" fill="#0B90CA"/><path d="M190.023 20.196c.638 0 1.155-.52 1.155-1.16 0-.641-.517-1.161-1.155-1.161-.639 0-1.156.52-1.156 1.16 0 .642.517 1.161 1.156 1.161z" fill="#0F2A44"/><path d="M190.901 18.525a.649.649 0 00.647-.65c0-.359-.29-.65-.647-.65a.649.649 0 00-.647.65c0 .359.29.65.647.65zm-1.109-.185a.232.232 0 10-.002-.465.232.232 0 00.002.464zm.333 2.089c.229-.01.41-.143.403-.297-.007-.154-.198-.27-.428-.26-.229.01-.41.143-.403.297.007.154.198.27.428.26z" fill="#fff"/><path d="M188.451 15.646c.046.186.139.372.277.511l.139.14c.185.139.231.37.093.51-.139.232-.463.186-.601 0-.185-.278-.324-.557-.324-.882 0-.186 0-.51.277-.464.093 0 .139.093.139.185z" fill="#0F2A44"/><path d="M187.804 16.296a.84.84 0 00.462.325.332.332 0 01.231.465c-.046.232-.369.371-.601.185-.184-.139-.323-.371-.416-.557-.046-.139-.138-.371.093-.464.092-.093.139-.046.231.046z" fill="#0F2A44"/><path d="M187.203 16.993c.139.093.37.14.509.14.138-.047.323.046.369.231.047.232-.185.418-.416.372-.231-.047-.369-.14-.554-.279-.139-.093-.278-.232-.139-.418.092-.046.185-.093.231-.046zm4.946-1.857c-.416-.372-.786-.557-1.341-.325l-.554.278c-.093.047-.185 0-.231-.093-.047-.185.138-.325.231-.464.416-.51 1.34-.79 1.895-.278.231.139.647.835.231.975-.139 0-.185-.047-.231-.093z" fill="#0F2A44"/><path d="M197.788 23.864a2.64 2.64 0 002.635-2.646 2.641 2.641 0 00-2.635-2.647 2.641 2.641 0 00-2.635 2.647 2.64 2.64 0 002.635 2.646z" fill="#fff"/><path d="M197.002 23.957a2.8 2.8 0 01-1.941-3.528 2.784 2.784 0 013.513-1.95 2.8 2.8 0 011.941 3.528c-.462 1.532-1.987 2.368-3.513 1.95zm1.433-5.06c-1.294-.372-2.588.37-2.958 1.67-.37 1.3.37 2.6 1.664 2.972 1.294.372 2.588-.371 2.958-1.671.37-1.3-.416-2.647-1.664-2.972z" fill="#0F2A44"/><path d="M197.788 23.075a1.853 1.853 0 001.849-1.857 1.853 1.853 0 00-1.849-1.857 1.853 1.853 0 00-1.849 1.857c0 1.026.828 1.857 1.849 1.857z" fill="#0B90CA"/><path d="M197.788 22.425c.664 0 1.202-.54 1.202-1.207s-.538-1.207-1.202-1.207c-.664 0-1.202.54-1.202 1.207 0 .666.538 1.207 1.202 1.207z" fill="#0F2A44"/><path d="M198.666 20.893a.648.648 0 00.647-.65.648.648 0 10-1.294 0c0 .359.29.65.647.65zm-1.155-.372a.278.278 0 00.277-.278.278.278 0 10-.555 0c0 .154.125.278.278.278zm.468 1.995c.229-.01.411-.122.405-.25-.006-.128-.196-.224-.426-.214-.229.01-.411.123-.405.25.005.129.196.224.426.214z" fill="#fff"/><path d="M201.394 19.268a1.81 1.81 0 01-.925.928c-.462.233-.832-.417-.416-.696.093-.046.231-.046.37-.093.185-.046.416-.186.555-.325l.138-.046c.185-.047.324.139.278.232z" fill="#0F2A44"/><path d="M201.532 20.475c-.277.279-1.155.79-1.34.14-.046-.233.092-.419.323-.465.139-.046.278.046.463.046.138 0 .231-.046.369-.092.231-.047.37.232.185.371z" fill="#0F2A44"/><path d="M201.44 21.45c-.324.093-.601.093-.925-.046a.323.323 0 01.231-.604c.139.046.185.14.324.186.092.046.231.046.324.046.231.047.277.372.046.418zm-3.883-4.69c.555-.65 1.756-.789 2.265 0 .139.186.416.93.092.93-.046 0-.138-.047-.138-.094-.324-.557-.694-.742-1.341-.603a2.719 2.719 0 01-.647.093c-.231.046-.37-.186-.231-.325z" fill="#0F2A44"/><path d="M190.808 27.532c-.323.697 1.849 1.532 2.173.325.092-.464-1.849-1.021-2.173-.325z" fill="#86CFE8"/><path d="M195.569 24.654c-3.374 1.067-5.315-1.347-5.315-1.347s.462.697.508 1.486c.093 1.021.139 2.228 1.063 2.507 1.387.464 1.849-1.393 3.744-2.646z" fill="#0F2A44"/><path d="M191.271 24.421s-.509.883.231 1.115c.647.185.971-.65.971-.65l-1.202-.465zm1.571.419s-.462.881.278 1.16c.785.279 1.201-1.068 1.201-1.068l-1.479-.093z" fill="#fff"/><path d="M190.993 26.14s1.526-.604 2.219.881c.046 0-1.803.975-2.219-.882z" fill="#EF7E85"/><path d="M191.825 27.579c-.046-.047 0-.047 0 0-1.063-.325-1.155-1.579-1.248-2.647v-.093c-.046-.743-.462-1.393-.462-1.393-.046-.092-.046-.232.046-.278a.284.284 0 01.324.046c.092.093 1.895 2.275 5.084 1.254.093-.047.232 0 .278.093.046.093 0 .232-.093.278-.739.465-1.248 1.068-1.71 1.579-.693.743-1.294 1.393-2.219 1.16zm-.97-3.436c.046.186.092.418.138.65v.093c.093.928.185 1.996.925 2.228h.046c.647.186 1.063-.232 1.757-1.021.277-.325.6-.65.97-1.022-1.756.279-3.051-.371-3.836-.928z" fill="#0F2A44"/><path d="M190.67 23.168a.59.59 0 00-.462.186c-.139.139-.232.325-.37.464-.046.046-.139.093-.231.046-.047-.046-.047-.093-.047-.139 0-.279.093-.557.324-.743.231-.186.601-.278.878-.093.093.047.093.14.046.232 0 0-.092.047-.138.047zm5.084 2.182c.139-.604-.046-.743-.554-1.068-.139-.093-.047-.325.138-.325.509.047 1.017.51.879 1.068-.047.14-.232.604-.416.418-.047 0-.047-.047-.047-.093z" fill="#0F2A44"/><path d="M199.471 25.701c.132-.469-.24-.984-.829-1.15-.59-.168-1.175.077-1.306.546-.132.47.24.985.829 1.151.59.167 1.175-.078 1.306-.547zm-10.435-2.345c.131-.47-.24-.985-.83-1.152-.59-.166-1.175.079-1.306.548-.132.469.24.984.83 1.15.589.168 1.174-.077 1.306-.546z" fill="#EF7E85"/><path d="M198.944 41.646c-.047.233-.278.233-.509.186a.427.427 0 01-.323-.51c.046-.233.277-.511.508-.465.231.047.37.557.324.79z" fill="#0F2A44"/><path d="M203.058 44.664c.416-.046.508-.371.462-.743-.046-.325-.416-.603-.832-.557-.416.047-1.017.325-.971.65.093.372.971.697 1.341.65zm-27.226-6.546c.416-.047.509-.372.462-.743-.046-.325-.416-.604-.832-.557-.416.046-1.016.325-.97.65.046.371.924.65 1.34.65z" fill="#86CFE8"/><path d="M201.808 31.113c.274-.268.294-.695.045-.952-.25-.257-.674-.247-.948.021-.274.269-.294.695-.045.952.25.257.674.247.948-.021zm-12.718 4.643c.4-.225.604-.626.454-.894-.15-.269-.596-.303-.997-.078-.401.226-.604.627-.454.895.149.268.596.303.997.077z" fill="#0F2A44"/><path d="M190.624 33.104c-.463.185-.925.092-1.11-.186-.277-.418.185-.557.647-.79.463-.232.832-.417 1.017 0 .139.326-.092.743-.554.976zm-6.472-5.108c-.092-.464.185-.882.555-.928.462-.047.601.186.693.65.093.464.093.882-.416.975-.416.046-.785-.232-.832-.697z" fill="#0B90CA"/><path d="M181.507 25.846c.193-.239.062-.669-.294-.96-.357-.292-.802-.335-.996-.097-.193.239-.062.668.295.96.356.292.801.335.995.097zm-1.443-1.408c.097-.12.063-.308-.075-.422-.139-.113-.329-.108-.426.01-.097.12-.063.309.075.422.139.114.33.109.426-.01zm-.901-.64c.116-.053.168-.19.116-.307-.052-.117-.189-.17-.305-.117a.232.232 0 00-.117.307c.053.117.189.169.306.117zm8.075 12.505c.178-.1.262-.291.187-.425-.075-.134-.28-.162-.459-.062-.178.1-.261.29-.186.425.074.134.28.162.458.062z" fill="#0F2A44"/><path d="M188.544 33.243c-.278.046-.555-.14-.601-.325-.047-.186.138-.418.369-.51.278-.047.509.046.555.231.093.232-.046.557-.323.604zm15.022-10.353c-.324.092-.693-.14-.74-.419-.046-.232.139-.51.463-.603.323-.093.647.046.693.325.092.232-.092.65-.416.696zm.185 5.57c-.231.047-.462-.092-.509-.278-.046-.186.093-.371.324-.418.231-.046.462.047.508.232.047.186-.092.418-.323.465zm-2.126-.464c-.185.047-.37-.092-.416-.232-.047-.139.092-.278.277-.325.185-.046.37.047.37.186.046.14-.046.325-.231.371zm-17.611-1.486c-.139-.139-.139-.417-.047-.51.093-.14.324-.093.509.046.139.14.185.372.092.465-.092.093-.416.139-.554 0zm.046-7.335c-.324.093-.693-.14-.786-.371-.092-.233.139-.558.462-.65.324-.093.647.046.74.278.092.232-.093.65-.416.743zm6.379 9.193c-.324.696 1.849 1.532 2.172.325.093-.51-1.895-1.068-2.172-.325z" fill="#0B90CA"/><path d="M203.058 30.07c.183-.179.201-.458.04-.623-.16-.165-.438-.154-.621.025s-.201.458-.041.623c.161.166.439.154.622-.025zm.832.062a.278.278 0 00.277-.278.278.278 0 10-.555 0c0 .153.124.278.278.278z" fill="#0F2A44"/><path d="M196.032 34.682c-.139.232-.37.279-.555.232a.676.676 0 01-.601-.743c.046-.371.37-.65.74-.603.092 0 .138.046.231.046" stroke="#0F2A44" stroke-width="3.369" stroke-miterlimit="10" stroke-linecap="round"/><path d="M197.28 36.957c-.047 1.16-1.803.697-1.387-.371.185-.511.878-.65 1.248-.232.092.139-.092.325-.185.185-.046-.046-.139-.093-.277-.093-.278-.046-.462.325-.37.558.046.232.416.417.647.232.093-.047.093-.14.139-.279 0-.14.185-.14.185 0zm.832 1.857c.462.557-.231 1.347-.879 1.068-.462-.186-.6-.836-.231-1.207.139-.14.463-.325.555-.046a.356.356 0 01-.092.232c-.324.093-.278.418-.047.51.231.093.463-.139.416-.417-.046-.14.139-.279.278-.14zm-11.602-7.939c-.185-.046-.324.093-.416.232-.278.51.416.929.786.464.138-.139.369 0 .277.186-.231.697-1.294.697-1.618.047-.231-.465.046-1.068.509-1.254.184-.093.647-.046.554.232.046.093 0 .093-.092.093zm-2.681 1.996a.496.496 0 00.092.558.459.459 0 00.416.046c.185-.046.231-.418.093-.604-.047-.046-.185-.139-.231-.139a.255.255 0 01-.139-.232c.046-.186.277-.093.416-.046.647.185.693 1.207.046 1.439-.508.186-1.109-.186-1.063-.743 0-.186.139-.604.37-.464.046.093.046.139 0 .185z" fill="#0F2A44"/><path d="M187.018 31.34a.314.314 0 01-.185-.28v-.092c0-.186.185-.186.324-.14.277.14.277.697-.139.511zm-4.668 3.342c-.37-.093-.694.279-.509.604.185.325.647.325.74-.14.046-.185.277-.092.277.047-.092.696-1.017.882-1.387.278-.277-.417.047-1.067.555-1.114.139 0 .555.047.462.232-.046.093-.092.093-.138.093zm-2.428 2.294c.206-.1.301-.332.212-.517-.09-.184-.33-.252-.536-.15-.207.1-.302.332-.212.517.089.184.329.252.536.15zm1.411-15.944c-.046.186.092.372.231.464.601.325 1.063-.464.555-.928-.185-.14 0-.418.231-.372.832.325.785 1.533-.047 1.904-.554.279-1.248-.093-1.432-.65-.093-.232 0-.79.323-.65.139.046.185.14.139.232zm-1.942-1.161c.185.279.601.325.786.047.185-.232.046-.65-.231-.743-.139-.046-.092-.279.046-.279.601 0 .925.79.555 1.3-.37.511-1.202.372-1.34-.232-.093-.139.092-.185.184-.093z" fill="#0F2A44"/><path d="M181.795 20.521c-.046.093-.092.186-.185.186-.046 0-.231-.046-.323-.046-.324-.047-.139-.465.046-.557.185-.14.554-.093.508.185 0 .047-.046.232-.046.232zm-2.172-1.114c0 .047-.047.047-.047.093-.046 0-.092.093-.138.14-.278.185-.37-.233-.185-.419a.359.359 0 01.37-.092c.046 0 .092.046.046.139l-.046.14zm-2.034-.557c.369.51.924-.186.416-.464-.047 0-.093-.093-.047-.14 0-.046.047-.046.093-.046.185 0 .37.14.462.325.185.418-.231.882-.647.743-.185-.047-.37-.232-.37-.372-.092-.092.046-.139.093-.046z" fill="#0F2A44"/><path d="M177.774 18.479c0 .046-.047.046-.047.092 0 0-.046 0-.092.047-.046.046-.139.093-.185 0-.092-.093-.046-.232.046-.279.046-.093.324-.139.324 0l-.046.14zm-1.572-.419a.37.37 0 000-.742.37.37 0 000 .743zm29.028 8.358c0 .418-.37.696-.74.79-.369.092-.832-.094-1.063-.419-.508-.696.093-1.764.971-1.625.092.047.185.14.185.232 0 .093-.093.14-.185.186-.37.093-.601.51-.416.836.185.325.74.325.878 0 .046-.232.324-.186.37 0zm2.034.232c-.462.418-1.202.093-1.248-.51-.093-.604.601-1.115 1.155-.79.139.093.047.279-.092.279-.324-.093-.647.185-.601.51.046.325.37.511.693.372.047-.14.185.046.093.139z" fill="#0F2A44"/><path d="M204.999 25.396c.231.047.37.233.37.465 0 .139-.139.371-.324.278l-.185-.093c-.092-.046-.138-.046-.185-.185-.046-.093.047-.232.047-.325.092-.093.184-.14.277-.14zm2.357.279c.278.046.37.51.093.65-.139.046-.231-.046-.231-.14 0-.046-.047-.092-.047-.139v-.139c.047-.093.047-.278.185-.232zm1.942.975c-.278.325-.879.093-.925-.325-.092-.418.37-.836.786-.604.092.047.046.233-.046.186-.139 0-.231.047-.324.093-.138.14-.092.418.093.51a.392.392 0 00.323 0c.093-.046.139.047.093.14z" fill="#0F2A44"/><path d="M209.344 25.907c.231.047.277.372.092.464-.092.047-.138 0-.185-.092 0-.047-.046-.093-.046-.093v-.093c.046-.093.046-.232.139-.186zm1.387.511a.37.37 0 00.369-.372.37.37 0 10-.739 0 .37.37 0 00.37.372zm-14.884-11.189c-.74.464-1.757-.279-1.664-1.161.046-.882 1.202-1.393 1.849-.79.138.14 0 .418-.185.326-.462-.233-1.017.046-1.063.557a.736.736 0 00.924.789c.185-.046.277.232.139.279zm.786-3.204c-.139.604-1.017.743-1.387.232-.416-.51-.093-1.3.555-1.346.138 0 .184.232.046.278-.185.047-.278.186-.324.372-.092.325.139.65.462.603.139 0 .324-.093.463-.232.046-.093.231-.046.185.093z" fill="#0F2A44"/><path d="M196.355 13.882a.571.571 0 01.046.604c-.046.139-.277.278-.369.093-.047-.093 0-.186-.047-.233 0-.139 0-.325.093-.464.092-.093.231-.093.277 0zm-.092-2.832c.185-.046.416.093.416.325 0 .093-.046.279-.185.232-.046 0-.046-.046-.046-.046-.093-.14-.093-.14-.231-.232l-.047-.047c-.046-.093 0-.232.093-.232zm.231-1.16c-.231.37-.878.278-1.017-.14-.185-.418.231-.929.693-.79.093.047.093.186-.046.233-.139 0-.231.046-.277.14-.139.185-.046.463.185.51.092.046.231 0 .323-.047.093-.092.185 0 .139.093zm0-.79c.231 0 .37.325.185.464-.093.047-.185 0-.185-.093-.046-.046-.046-.092-.046-.092v-.093c-.047 0-.093-.186.046-.186zm.37-1.346c-.185.325-.694.232-.786-.14-.139-.325.185-.743.555-.603.092.046.092.185 0 .185a.256.256 0 00-.232.14c-.092.139-.046.371.139.418.093.046.185 0 .277-.047 0-.093.093 0 .047.047zm0-.604c.185 0 .277.232.138.371-.046.047-.138 0-.138-.046s-.047-.046-.047-.046v-.047c-.046-.093-.046-.232.047-.232zm-6.009 21.032c.277.232.601.464.97.325.139-.046.278-.093.416-.186.139-.046.278.14.185.279-.37.464-1.109.604-1.571.186-.139-.14-.509-.557-.185-.697.092 0 .138.047.185.093zM175.462 40.81c-.924-.278-1.617-.789-1.987-1.531-.37-.65-.37-1.44-.046-2.043.693-1.254 3.42-.557 3.744-.465.138.047.277.233.231.372-.046.186-.231.278-.37.232-.971-.279-2.681-.464-3.051.186-.231.418-.231.975.047 1.439.369.743 1.201 1.207 2.311 1.346 1.525.14 4.252-.975 6.841-2.042 2.773-1.161 5.408-2.229 6.794-1.904h.047c.97.279 1.987 1.81 3.328 3.76 1.849 2.74 4.16 6.13 6.61 6.269 1.987.139 2.865-.79 3.235-1.347.416-.603.416-1.207.324-1.3-.324-.418-.694-.371-1.341-.232-.554.093-1.248.232-1.941-.14-.139-.092-.231-.278-.139-.417.093-.14.278-.232.416-.14.555.28 1.017.186 1.572.093.647-.139 1.387-.278 1.941.465.278.325.185 1.068-.185 1.764-.323.604-1.34 2.043-3.929 1.857-2.727-.186-5.13-3.714-7.072-6.546-1.155-1.718-2.265-3.343-3.004-3.529h-.046c-1.202-.278-3.883.836-6.425 1.904-2.681 1.114-5.501 2.275-7.165 2.089-.231-.046-.462-.093-.74-.14z" fill="#0F2A44"/><path d="M175.878 37.05c-.046 0-.138-.046-.184-.14a.302.302 0 01.092-.417c2.542-1.672 5.316-6.593 5.223-8.543-.046-.65-1.525-2.09-2.912-3.529-2.727-2.739-6.148-6.128-4.345-8.125 1.063-1.16 2.774-.835 4.761-.417 2.173.417 4.669.928 7.165-.233 1.433-.65 3.143-2.832 4.761-4.921 2.357-2.971 4.761-6.082 7.026-5.571 2.588.557 3.143 4.039 3.744 7.753.416 2.74.878 5.525 2.172 7.104 1.387 1.625 3.79 2.414 5.917 3.11 2.403.79 4.53 1.44 4.576 3.204.092 2.275-3.559 3.204-7.072 4.132-2.173.557-4.438 1.16-4.992 1.95-1.202 1.672-1.064 9.054.462 10.586.138.14.138.325 0 .418-.139.139-.324.139-.416 0-1.248-1.207-1.433-4.69-1.433-5.711-.046-1.95.139-4.596.924-5.664.694-.975 2.866-1.532 5.362-2.182 3.143-.79 6.703-1.718 6.61-3.529-.046-1.346-1.941-1.95-4.16-2.646-2.219-.697-4.715-1.533-6.194-3.297-1.433-1.671-1.895-4.596-2.311-7.382-.555-3.482-1.063-6.732-3.282-7.243-1.895-.418-4.16 2.507-6.425 5.386-1.756 2.228-3.42 4.364-4.992 5.06-2.681 1.254-5.362.697-7.534.28-1.849-.372-3.328-.65-4.16.231-1.433 1.579 1.756 4.736 4.298 7.29 1.896 1.857 3.051 3.064 3.097 3.9.139 2.135-2.727 7.289-5.5 9.1-.139.046-.231.092-.278.046z" fill="#0F2A44"/><path d="M208.373 22.843l.462.14c.601.185.74.556 1.202-.094.37-.51 1.433-1.346 1.757-1.207.323.14.508.604.416.929-.093.325-.463.975-.555 1.114-.092.186-.185.093 1.017 0 .647-.046 1.479 0 2.311.696.832.697 1.063 2.461.74 3.018-.324.511-1.156.975-2.173 1.3-1.017.325-.878.279-2.034.557-.369.093-.739.14-1.34.279-.647.14-1.572.418-1.757.464-.554.325-1.756-5.293-.046-7.196z" fill="#6AC7E7" stroke="#348CCC" stroke-width=".75" stroke-miterlimit="10"/><path d="M205.923 26.604s-.092-1.393.37-2.508c.509-1.114 1.017-1.532 1.341-1.578.369-.047.693 0 .785.232.093.186-.693 1.625-.693 1.996-.046.372-.185.929-.139 1.765.047.789.139 1.671.278 1.95.138.278.416 1.439.554 1.625.139.185-.369.371-.647.464-.277.093-.924.232-1.248.093-.231-.093-.601-3.25-.601-4.04z" fill="#95CFF2" stroke="#0B90CA" stroke-width=".5" stroke-miterlimit="10"/><path d="M207.634 22.75s-.37.279-.647.79c-.324.464-.601 1.114-.648 1.392-.046.279-.138.79-.138 1.022 0 .232.046.928.092 1.253.046.279 0-.882.093-1.16.046-.28.092-.604.138-.743 0 0-.138.835.047 1.3 0 0 .046.278.092.371.046.093-.139-2.043.324-2.74.462-.696.508-.974.924-1.253.37-.186-.277-.232-.277-.232z" fill="#C5E6EE"/><path d="M206.617 30.086s.138.325.323.325.694-.14.879-.232c.184-.093.277-.14.184-.325-.092-.186-.462-1.068-.554-1.44-.093-.371-.278-1.718-.231-2.414.046-.696-.416 1.625-.324 2.043 0 0-.231-.186-.185-.836 0 0-.185.65-.092 1.254 0 0-.231-.14-.278-.557-.046-.418 0 .046 0 .046s0 1.486.278 2.136z" fill="#C5E6EE"/><path d="M210.083 24.56s.463-.278.694-.556l.416-.418s.231.093-.185.464c-.416.371-.693.51-.693.51s.277-.139 1.016-.324c.324-.093.555-.093 1.156 0 1.664.232-.508 0-.971.093-.323.046-1.063.325-1.34.417-.277.093-.555.14-.093-.185zm-1.617 4.086s4.899-.742 5.639-1.207c.739-.464.971-.789 1.109-1.207.093-.464.324.65.093.975-.231.279-.601.929-5.501 2.043 0 0-1.155.279-1.248.279-.092 0-.37-.604-.092-.883z" fill="#0B90CA"/><path d="M209.529 28.321s3.467-.557 4.345-1.16c.878-.604 1.017-.836 1.017-.836s-.463.696-1.017.975c-.555.279-2.912.882-4.114 1.021-1.202.14-.231 0-.231 0z" fill="#A0D7EA"/><path d="M179.715 15.925l-.462-.14c-.601-.185-.925.047-.971-.742-.046-.65-.37-1.904-.74-1.997-.369-.092-.785.233-.878.558a7.525 7.525 0 00-.185 1.253c-.046.186.093.186-.832-.557-.508-.418-1.248-.836-2.311-.743-1.063.093-2.357 1.393-2.357 2.043-.046.65.37 1.44 1.017 2.321.647.883.554.697 1.34 1.625.231.279.509.558.971 1.022.462.464 1.063 1.207 1.155 1.393.232.418 4.576-3.529 4.253-6.036z" fill="#6AC7E7" stroke="#348CCC" stroke-width=".75" stroke-miterlimit="10"/><path d="M179.576 20.382s.925-1.068 1.156-2.275c.277-1.207.092-1.81-.185-2.043-.277-.232-.601-.371-.786-.278-.185.093-.416 1.718-.601 2.043-.185.325-.416.882-.924 1.532-.509.65-1.11 1.253-1.387 1.439-.277.186-1.202.975-1.433 1.021-.231.047.093.465.278.743.184.279.647.697.97.79.324.092 2.404-2.322 2.912-2.972z" fill="#95CFF2" stroke="#0B90CA" stroke-width=".5" stroke-miterlimit="10"/><path d="M180.408 16.25s.139.418.093 1.021c-.046.604-.185 1.3-.324 1.533-.138.232-.323.696-.508.928-.185.232-.601.743-.832.929-.231.232.508-.743.647-.975l.323-.65s-.416.743-.785 1.021c0 0-.232.232-.324.279-.092.046 1.341-1.579 1.341-2.415 0-.835.138-1.114-.047-1.532-.185-.418.416-.139.416-.139z" fill="#C5E6EE"/><path d="M176.895 22.89s-.277.185-.462.092c-.139-.093-.508-.51-.601-.696-.138-.186-.138-.279.046-.372.185-.093 1.017-.603 1.295-.882.277-.278 1.248-1.253 1.617-1.857.37-.604-.6 1.579-.97 1.857 0 0 .323-.046.647-.557 0 0-.231.65-.647 1.068 0 0 .231 0 .554-.279.278-.325-.046.047-.046.047s-.786 1.207-1.433 1.578z" fill="#C5E6EE"/><path d="M177.311 16.39s-.185-.465-.277-.836c-.092-.372-.092-.604-.092-.604s-.278-.046-.093.464c.185.511.277.79.277.79s-.138-.279-.647-.836c-.231-.232-.416-.418-.97-.697-1.526-.742.416.279.739.65.231.233.694.836.878 1.068.185.279.416.511.185 0zm-1.109 4.224s-3.652-3.389-3.975-4.225c-.324-.835-.37-1.207-.185-1.625.185-.418-.693.372-.647.743.046.372-.046 1.114 3.328 4.782 0 0 .832.882.878.929.093.093.693-.186.601-.604z" fill="#0B90CA"/><path d="M175.555 19.779s-2.542-2.415-2.912-3.436c-.37-.975-.37-1.254-.37-1.254s-.046.836.231 1.393c.278.557 1.895 2.368 2.82 3.204.924.835.231.093.231.093z" fill="#A0D7EA"/><path d="M184.615 16.854s-2.959-.14-2.728-2.554c.232-2.414 2.173-4.782 3.513-5.571 1.341-.743 3.467-.929 3.883-.325.416.65.416 1.81.416 1.81s0-.65-.139-1.207c-.092-.418-.416-.836-.832-.928-.231-.047-.416-.14-.369-.418.092-.511 1.109-1.579 1.849-2.507.462-.558 1.895-2.09 3.189-2.972 1.294-.882 3.282-2.136 4.715-2.043 1.433.093 3.374 3.111 3.929 4.318.554 1.16 1.109 2.972 1.109 6.825 0 0-1.803.697-1.71 2.6 0 0-.139-2.043 1.71-2.414 1.849-.372 3.189 2.321 3.467 3.157.231.836.878 3.668.554 5.06-.277 1.254-.832 1.904-1.617 2.09-.786.14-2.635-.65-3.421-2.136-1.294-2.414-1.618-8.032-1.803-10.4-.138-1.439-.277-2.275-1.109-3.25-1.156-1.346-3.189-1.532-4.761.14-1.294 1.392-2.126 2.971-2.45 3.482-.323.51-.739 1.439-1.941 2.925-1.294 1.532-3.744 4.596-5.454 4.318z" fill="#41ABE2" stroke="#2D5BA5" stroke-miterlimit="10"/><path d="M183.274 15.971s-1.017-2.228.324-4.364c1.109-1.718 2.08-2.507 3.143-2.6 1.063-.093 1.525.14 1.525.14s-1.202.278-1.479.417c-.739.325-1.063.65-1.895 1.672-1.248 1.532-1.341 2.321-1.387 2.6-.231.975-.231 2.135-.231 2.135zm20.893-3.389s1.063.51 1.618 2.414c.601 1.904.508 1.811.554 3.39 0 .603 0 2.089-.6 2.507-.185.14.416-1.254.138-2.693-.277-1.44-.462-2.925-1.248-4.55-.647-1.532-.462-1.068-.462-1.068z" fill="#95CFF2"/><path d="M204.583 44.2l.601.464s.277.186.185.325c-.093.14-.879 1.3-1.202 1.625 0 0-.093.047-.37-.139s-.647-.464-.647-.464l-.231.232.693.464s.231.14.093.279c-.093.139-1.479 1.16-2.404 1.578-.37.186-.878.047-1.109-.278-.046-.093-.139-.186-.185-.325l-.277.093s.462.789.554 1.021c.139.232.231.325.324.325.138 0 2.681-1.3 3.559-2.275.924-.975 1.248-1.346 1.849-2.414 0 0 .231-.65-.462-.511-.694.14-.879-.186-.879-.186l-.092.186z" fill="#5D7F8C" stroke="#003951" stroke-width=".25" stroke-miterlimit="10"/><path d="M201.44 40.904s.231 1.207.416 1.439c.185.232.693 0 .693 0s.416-.325.925-.14c.462.14 1.294 1.486 1.479 1.718.185.233-1.387 2.183-2.543 2.972-.924.65-2.218 1.021-2.357 1.068-.139.046-.508.139-1.109-.186s-3.837-3.621-3.929-3.76c-.139-.186 3.79-1.254 6.425-3.111z" fill="#224E8D" stroke="#003951" stroke-width=".25" stroke-miterlimit="10"/><path d="M193.767 43.271s6.933-2.785 7.442-3.575c.508-.789.693.836.693.836s.092.093-.37.372c-.37.232-3.883 2.321-6.563 3.157a1.315 1.315 0 01-.601 0c-.139-.047-.278-.093-.324-.14-.139-.139-.508-.557-.277-.65z" fill="#6F9AB2" stroke="#003951" stroke-width=".25" stroke-miterlimit="10"/><path d="M205.6 44.525s.185-.046.277-.046c.093 0 .139.092.093.139-.047.232-.832 1.393-1.387 1.95-.601.603-.509.743-3.143 2.228 0 0 1.941-1.114 2.958-2.321 1.017-1.254 1.294-1.764 1.341-1.81.046-.047 0-.047-.047-.094-.046.047-.138 0-.092-.046zm-4.068-4.829s0 .047.093.233c.046.092.185.557.138.603-.138.186-1.479.882-2.218 1.207-.694.325-5.917 3.065-4.9 1.672 0 0 3.282-1.254 4.669-2.043 1.386-.79 1.848-1.16 1.895-1.207.046-.047.046-.093.138-.279.047-.046.139-.186.185-.186z" fill="#9AC8DD"/><path d="M200.053 42.064s.971 0 1.294-.093c.278-.092-.739 1.068-.878 1.068-.092.047.185.279 1.479-.325 1.248-.603-.601.697-.601.697s-.092.278.647-.279c.74-.51.832-.743.925-.743.092 0-.37.465-.462.511-.093.046 0 .14.092.093.093-.093.555-.604.601-.65.046-.047.139-.093.139-.047 0 .047-.694.743-.694.743s-.231.093-.185-.093c0 0 0-.046.139-.139.139-.093.277-.278.277-.278s-.046 0-.092.046a4.495 4.495 0 01-.693.557s-.416.325-.601.372c-.185.046-.093-.14-.093-.14s.832-.65.925-.696c.092-.047.185-.14 0-.047-.185.093-.462.279-1.063.418-.601.186-.74.047-.74.047s-.092-.093 0-.14c.093-.046.693-.603.832-.882 0 0 .093-.093-.046-.046 0 0-.416.093-1.109.046h-.093z" fill="#C0E4F4"/><path d="M201.07 41.507s-.416.743-.647.836c-.231.14-.324.186-.277.186.046.046 1.155-.186 1.248-.233.092-.046.323-.092.231 0-.093.14-.786.883-.832.975-.047.093.185.093.277 0 .092-.092 1.294-.603 1.34-.65.093-.046-.508.604-.554.65-.046.047 1.017-.882 1.063-.882.046.047-1.202 1.068-1.202 1.068s-.185.14-.046-.046.555-.65.555-.65c-.139.093-1.064.51-1.11.557a.347.347 0 01-.185.093c-.046 0-.138 0-.185-.047-.046-.046 0-.093 0-.139.047-.046.74-.836.74-.836.046-.046.046-.093 0-.046-.046 0-.832.232-1.063.232-.231 0-.324.046-.324 0-.046 0-.092-.046-.046-.093.046-.046.277-.186.324-.232.046-.046.601-.79.601-.836.092 0 .092.093.092.093z" fill="#C0E4F4"/><path d="M195.385 44.06c-.047.186 3.929-1.531 4.345-1.856.416-.372.138.603.231.835.092.232.231.697.508.882.277.14.74.465 1.71-.325.971-.789 1.063-1.16 1.341-1.16.277 0 1.109 1.393 1.202 1.485.092.093-.694 1.3-1.526 2.183-.786.835-3.189 1.671-3.42 1.671-.139 0-.324.14-.786-.279-.462-.464-3.605-3.435-3.605-3.435z" fill="#0B90CA"/><path d="M204.167 43.504s.231.092.277.139c.139.093.093.278.093.325-.093.232-.879 1.44-1.479 1.95-.74.603-1.618 1.068-3.375 1.718 0 0 2.034-.929 3.19-2.043 1.155-1.114 1.433-1.625 1.479-1.672.046-.046-.093-.139-.139-.139-.046-.046-.046-.278-.046-.278z" fill="#0F2A44"/><path d="M172.55 37.282l-.693.279s-.277.093-.277.278c.046.186.508 1.486.739 1.904 0 0 .093.093.37-.047.277-.092.786-.278.786-.278l.139.278-.786.279s-.231.093-.185.279c.092.139 1.109 1.532 1.895 2.135.324.279.786.279 1.156.047a.803.803 0 00.277-.279l.231.186-.832.836c-.185.185-.277.278-.416.232-.139-.047-2.219-1.997-2.866-3.111-.647-1.207-.832-1.671-1.155-2.832 0 0-.047-.65.6-.372.648.279.925.093.925.093l.092.093z" fill="#5D7F8C" stroke="#003951" stroke-width=".25" stroke-miterlimit="10"/><path d="M176.479 34.96s-.554 1.115-.785 1.254c-.232.14-.648-.185-.648-.185s-.323-.418-.832-.372c-.508.047-1.617 1.114-1.849 1.254-.231.139.74 2.46 1.665 3.575.739.882 1.895 1.578 1.987 1.671.093.093.462.279 1.156.093.647-.186 4.668-2.46 4.807-2.6.046-.14-3.467-2.229-5.501-4.69z" fill="#224E8D" stroke="#003951" stroke-width=".25" stroke-miterlimit="10"/><path d="M183.228 39.279s-5.917-4.55-6.24-5.433c-.324-.882-.878.604-.878.604s-.093.046.277.464c.323.325 3.143 3.297 5.5 4.782.185.093.37.14.601.14.139 0 .278-.047.37-.047.139-.093.601-.371.37-.51z" fill="#6F9AB2" stroke="#003951" stroke-width=".25" stroke-miterlimit="10"/><path d="M171.533 37.329s-.184-.093-.231-.093c-.092 0-.138.046-.138.093 0 .232.416 1.578.832 2.275.462.742.277.835 2.45 3.017 0 0-1.572-1.578-2.265-3.064-.648-1.486-.786-2.043-.786-2.09 0-.046.046-.046.092-.046-.046 0 .046-.046.046-.092zm5.177-3.529s0 .046-.138.186c-.046.046-.324.464-.324.51.093.233 1.202 1.254 1.803 1.765.555.51 4.9 4.503 4.252 2.925 0 0-2.819-2.043-3.975-3.204-1.155-1.114-1.479-1.625-1.479-1.671 0-.047-.046-.093-.046-.325 0-.047-.046-.186-.093-.186z" fill="#9AC8DD"/><path d="M177.496 36.446s-.97-.232-1.202-.417c-.231-.186.463 1.207.555 1.253.093.047-.277.186-1.34-.696-1.063-.882.416.835.416.835s0 .279-.555-.417c-.555-.697-.601-.929-.693-.975-.093 0 .231.557.323.65.046.046-.046.139-.092.046-.046-.093-.37-.696-.416-.79-.046-.046-.093-.139-.093-.092 0 .046.463.882.463.882s.184.14.231-.046c0 0 0-.047-.093-.186a3.753 3.753 0 01-.185-.325s.047 0 .093.093.185.371.508.743c0 0 .324.417.509.51.185.093.138-.093.138-.093s-.647-.835-.693-.882c-.046-.046-.139-.185.046-.046.185.14.37.371.878.696.509.325.694.232.694.232s.138-.046.046-.139c-.092-.093-.508-.79-.601-1.068 0 0-.092-.139.046-.046 0 0 .37.232 1.063.371l-.046-.093z" fill="#C0E4F4"/><path d="M176.664 35.657s.231.79.37.975c.139.186.277.232.185.279-.093.046-1.063-.465-1.156-.557-.092-.093-.277-.186-.231-.047.046.14.509 1.068.555 1.16.046.094-.185.047-.277-.092-.047-.093-1.064-.929-1.11-.975-.046-.046.324.696.37.79 0 .046-.74-1.115-.786-1.115-.046 0 .878 1.346.878 1.346s.139.186.093 0c-.046-.185-.37-.789-.37-.789.139.093.925.79.925.836 0 .046.092.14.138.14.046 0 .139.046.185 0 .046-.047.046-.094.046-.14 0-.047-.462-.975-.508-1.022 0-.046 0-.092.046-.046s.74.418.971.51c.231.094.277.14.323.094.047-.047.093 0 .047-.093-.047-.093-.232-.232-.278-.325-.046-.047-.37-.929-.37-.975 0-.093-.046.046-.046.046z" fill="#C0E4F4"/><path d="M181.518 39.604c0 .185-3.375-2.508-3.698-2.972-.324-.464-.278.557-.416.743-.139.232-.416.65-.694.696-.323.047-.832.279-1.571-.789-.74-1.021-.74-1.393-.971-1.486-.231-.092-1.433 1.022-1.525 1.115-.093.093.323 1.439.924 2.507.555 1.021 2.635 2.46 2.866 2.507.139 0 .277.232.832-.046.416-.279 4.253-2.275 4.253-2.275z" fill="#0B90CA"/><path d="M173.151 36.725s-.231.046-.323.093c-.185.046-.185.232-.185.325 0 .232.462 1.625.924 2.275.555.79 1.295 1.486 2.774 2.507 0 0-1.711-1.44-2.496-2.832-.786-1.393-.971-1.95-.971-2.043 0-.046.139-.14.139-.14.092 0 .185-.185.138-.185z" fill="#0F2A44"/></g><defs><clipPath id="clip0_4_321"><path fill="#fff" d="M0 0h216v52H0z"/></clipPath></defs></svg>