<svg width="79" height="76" fill="none" xmlns="http://www.w3.org/2000/svg"><path d="M15.29 0c-4.91 0-8.919 3.985-8.919 8.867 0 4.882 4.008 8.866 8.92 8.866 4.91 0 8.919-3.984 8.919-8.866S20.2 0 15.29 0zm17.84 0c-1.014 0-1.986.4-2.703 1.113a3.789 3.789 0 00-1.12 2.687c.002.24.026.478.073.713.042.218.104.432.184.64.014.04.027.081.042.121l.01.02c1.267 3.242 6.062 6.106 6.062 6.106s4.894-2.92 6.103-6.2a3.779 3.779 0 00-.851-4.087 3.834 3.834 0 00-5.252-.14A3.835 3.835 0 0033.13 0zm25.484 0c-4.911 0-8.92 3.985-8.92 8.867 0 .436.043.861.105 1.281a10.12 10.12 0 00-.926-.007c-1.223.05-2.82.305-4.026 1.504-1.206 1.2-1.463 2.79-1.513 4.005-.05 1.216.144 2.197.144 2.197l.167.834.838.166s.99.193 2.213.143c1.223-.05 2.82-.305 4.026-1.504.79-.785 1.152-1.73 1.337-2.635a8.913 8.913 0 006.555 2.882 8.913 8.913 0 006.555-2.882c.184.904.547 1.85 1.336 2.635 1.207 1.199 2.804 1.454 4.027 1.504 1.223.05 2.212-.143 2.212-.143l.84-.166.166-.834s.195-.983.144-2.2c-.05-1.215-.307-2.803-1.513-4.002-1.206-1.2-2.803-1.454-4.026-1.504a10.12 10.12 0 00-.926.007c.062-.42.104-.845.104-1.281 0-4.882-4.008-8.867-8.92-8.867zM15.29 2.533c3.534 0 6.371 2.82 6.371 6.334 0 3.512-2.837 6.333-6.37 6.333-3.534 0-6.372-2.82-6.372-6.333 0-3.513 2.838-6.334 6.371-6.334zm43.323 0c3.534 0 6.37 2.82 6.37 6.334 0 3.512-2.836 6.333-6.37 6.333-3.534 0-6.371-2.82-6.371-6.333 0-3.513 2.837-6.334 6.37-6.334zm-9.636 10.139c.373-.016.398.02.67.042.022.27.057.294.042.665-.037.896-.288 1.838-.77 2.316-.48.478-1.43.727-2.331.764-.372.015-.396-.02-.667-.042-.023-.27-.058-.293-.043-.663.037-.895.288-1.839.77-2.318.48-.478 1.428-.728 2.329-.764zm19.272 0c.9.036 1.849.286 2.33.764.48.478.731 1.423.768 2.318.016.37-.02.394-.042.663-.271.022-.295.057-.667.042-.9-.037-1.85-.286-2.332-.764-.48-.478-.732-1.42-.769-2.316-.015-.371.02-.395.042-.665.272-.023.297-.058.67-.042zm-58.055 7.595C4.579 20.267 0 24.819 0 30.4v19.633c0 2.434 2.012 4.434 4.46 4.434.69 0 1.325-.19 1.911-.473v16.94c0 2.783 2.297 5.066 5.097 5.066 1.543 0 2.885-.73 3.822-1.818C16.228 75.27 17.57 76 19.113 76c2.8 0 5.097-2.283 5.097-5.067V38.448l5.843 7.709.035.05.017.021.015.023.095.12c.117.152.268.275.44.36.805.816 1.868 1.402 3.111 1.402.448 0 .873-.088 1.282-.212.108.054.224.094.343.116.296.062.606.096.924.096 1.234 0 2.288-.578 3.09-1.383.179-.086.335-.212.456-.368l6.948-9.067-4.72 18.102a1.26 1.26 0 00.672 1.454c.175.085.367.13.562.129h6.37v13.933c0 2.784 2.297 5.067 5.097 5.067 1.543 0 2.886-.73 3.823-1.818C59.55 75.27 60.893 76 62.435 76c2.8 0 5.097-2.283 5.097-5.067V57h6.371a1.28 1.28 0 001.008-.49 1.263 1.263 0 00.227-1.093l-1.24-4.75h.005c2.8 0 5.097-2.284 5.097-5.067 0-.483-.136-.913-.261-1.343a1.26 1.26 0 00-.073-.458l-6.634-18.485c-1.013-2.823-3.614-4.711-6.575-4.958-.15-.06-.311-.09-.473-.09H52.242a1.28 1.28 0 00-.667.191 7.5 7.5 0 00-5.219 2.989 1.27 1.27 0 00-.388.334L35.053 38.022 25.17 24.98a10.21 10.21 0 00-8.606-4.713h-6.37zm53.543 1.529a1.278 1.278 0 001.217 1.017 5.078 5.078 0 014.676 3.352l6.583 18.332c.014.065.033.128.057.19.117.298.182.6.182.913a2.521 2.521 0 01-2.549 2.533 2.47 2.47 0 01-1.13-.287l-1.784.552a1.26 1.26 0 00-.087.868l1.354 5.2h-5.998a1.273 1.273 0 00-1.274 1.267v15.2a2.522 2.522 0 01-2.548 2.534 2.521 2.521 0 01-2.549-2.534 1.263 1.263 0 00-.42-.939 1.278 1.278 0 00-1.746.034 1.263 1.263 0 00-.382.905 2.521 2.521 0 01-2.549 2.534 2.522 2.522 0 01-2.548-2.534v-15.2a1.26 1.26 0 00-.373-.895 1.278 1.278 0 00-.901-.371H44.97l5.863-22.484a1.26 1.26 0 00-.673-1.454 1.28 1.28 0 00-.561-.129h-.065a1.28 1.28 0 00-1.013.5l-9.997 13.045.971.579a1.28 1.28 0 00-1.359.032c.056-.278.09-.563.09-.856 0-.71-.344-1.288-.642-1.878a1.262 1.262 0 00-.254-.794l-.684-.905.04-.05 10.541-13.758-1.005-.75a1.278 1.278 0 001.849-.348 5.076 5.076 0 014.198-2.405 1.28 1.28 0 001.19-.903l-.269.891h10.75l-.202-1.004zM10.193 22.8h6.371a7.632 7.632 0 016.454 3.538c.018.028.037.057.057.084L34.55 41.57l.956-.76a1.265 1.265 0 00-.222 1.752 1.886 1.886 0 01-1.518 3.038 1.878 1.878 0 01-1.518-.764 1.247 1.247 0 00-.082-.1l-.008-.004-.007-.01a1.277 1.277 0 00-1.633-.178l.949-.708.674.868-8.056-10.633a1.27 1.27 0 00-1.018-.504h-.131c-.338 0-.663.133-.901.37a1.26 1.26 0 00-.374.896v36.1a2.521 2.521 0 01-2.548 2.534 2.522 2.522 0 01-2.549-2.534 1.264 1.264 0 00-.42-.939 1.278 1.278 0 00-1.745.034 1.263 1.263 0 00-.383.905 2.521 2.521 0 01-2.548 2.534 2.521 2.521 0 01-2.549-2.534v-20.9a1.259 1.259 0 00-.044-.306 1.263 1.263 0 00-.328-1.222 1.278 1.278 0 00-1.803 0c-.239.237-.373.56-.373.895 0 .11.016.218.045.324a1.26 1.26 0 00-.045.31c0 1.064-.84 1.9-1.911 1.9a1.886 1.886 0 01-1.912-1.9V30.4c0-4.212 3.408-7.6 7.646-7.6z" fill="url(#paint0_linear_10_4948)"/><defs><linearGradient id="paint0_linear_10_4948" x1="39.5" y1="-.851" x2="39.5" y2="78.016" gradientUnits="userSpaceOnUse"><stop stop-color="#003CA7"/><stop offset="1" stop-color="#00B7FF"/></linearGradient></defs></svg>