<svg width="89" height="76" fill="none" xmlns="http://www.w3.org/2000/svg"><path d="M32.298 0c-5.135 0-9.33 4.19-9.33 9.32 0 5.131 4.195 9.322 9.33 9.322 4.925 0 8.886-3.887 9.21-8.727.082-.188.124-.39.121-.594a1.434 1.434 0 00-.12-.588C41.186 3.889 37.224 0 32.298 0zm24.404 0c-5.136 0-9.331 4.19-9.331 9.32 0 5.131 4.195 9.322 9.33 9.322 4.926 0 8.886-3.887 9.21-8.727.083-.188.124-.39.121-.594a1.432 1.432 0 00-.12-.588C65.59 3.889 61.629 0 56.702 0zM32.298 2.868a6.436 6.436 0 016.46 6.453 6.436 6.436 0 01-6.46 6.453 6.436 6.436 0 01-6.46-6.453 6.436 6.436 0 016.46-6.453zm24.404 0a6.436 6.436 0 016.46 6.453 6.436 6.436 0 01-6.46 6.453 6.436 6.436 0 01-6.46-6.453 6.436 6.436 0 016.46-6.453zM15.79 18.642c-5.532 0-10.048 4.511-10.048 10.037 0 5.526 4.516 10.038 10.048 10.038 5.322 0 9.602-4.207 9.928-9.444.082-.187.123-.39.12-.594a1.434 1.434 0 00-.12-.59c-.324-5.238-4.605-9.447-9.928-9.447zm57.42 0c-5.532 0-10.049 4.511-10.049 10.037 0 5.526 4.517 10.038 10.049 10.038 5.321 0 9.602-4.207 9.928-9.444.082-.187.123-.39.12-.594a1.432 1.432 0 00-.12-.59c-.325-5.238-4.606-9.447-9.928-9.447zm-57.42 2.867a7.154 7.154 0 017.178 7.17 7.154 7.154 0 01-7.178 7.17 7.154 7.154 0 01-7.177-7.17 7.154 7.154 0 017.177-7.17zm57.42 0a7.154 7.154 0 017.177 7.17 7.154 7.154 0 01-7.177 7.17 7.154 7.154 0 01-7.178-7.17 7.154 7.154 0 017.178-7.17zM44.5 28.68c-6.324 0-11.484 5.154-11.484 11.472s5.16 11.472 11.484 11.472c6.114 0 11.035-4.85 11.363-10.878.082-.187.123-.39.12-.594a1.432 1.432 0 00-.12-.588C55.538 33.533 50.616 28.68 44.5 28.68zm0 2.868a8.589 8.589 0 018.613 8.604 8.589 8.589 0 01-8.613 8.604 8.589 8.589 0 01-8.613-8.604 8.589 8.589 0 018.613-8.604zm-28.71 8.604C4.204 40.15.098 50.284.098 50.284a1.433 1.433 0 00-.098.52v3.687a1.433 1.433 0 001.435 1.434h28.71a1.436 1.436 0 001.436-1.434v-3.686a1.45 1.45 0 00-.098-.521S27.377 40.151 15.79 40.151zm57.42 0c-11.587 0-15.692 10.133-15.692 10.133a1.433 1.433 0 00-.099.52v3.687a1.433 1.433 0 001.436 1.434h28.71A1.436 1.436 0 0089 54.49v-3.686a1.43 1.43 0 00-.098-.521S84.796 40.15 73.21 40.15zM15.79 43.02c9.564 0 12.688 7.516 12.92 8.105v1.933H2.87v-1.933c.232-.59 3.355-8.105 12.92-8.105zm57.42 0c9.564 0 12.687 7.516 12.919 8.105v1.933H60.29v-1.933c.232-.59 3.356-8.105 12.92-8.105zM44.5 54.49c-15.428 0-21.42 13.925-21.42 13.925a1.432 1.432 0 00-.112.557v5.593A1.434 1.434 0 0024.403 76h40.194a1.436 1.436 0 001.435-1.434v-5.593c0-.191-.038-.38-.112-.557 0 0-5.992-13.925-21.42-13.925zm0 2.867c13.329 0 18.383 11.319 18.661 11.962v3.812H25.84V69.32c.278-.643 5.332-11.961 18.661-11.961zm-11.484 7.17c-.792 0-1.435.643-1.435 1.434v2.868a1.435 1.435 0 002.87 0v-2.868c0-.791-.642-1.434-1.435-1.434zm7.178 0c-.793 0-1.436.643-1.436 1.434v2.868a1.435 1.435 0 002.871 0v-2.868c0-.791-.643-1.434-1.435-1.434zm8.612 0c-.792 0-1.435.643-1.435 1.434v2.868a1.435 1.435 0 002.87 0v-2.868c0-.791-.642-1.434-1.435-1.434zm7.178 0c-.793 0-1.436.643-1.436 1.434v2.868a1.435 1.435 0 002.871 0v-2.868c0-.791-.643-1.434-1.435-1.434z" fill="url(#paint0_linear_10_4938)"/><defs><linearGradient id="paint0_linear_10_4938" x1="44.5" y1="-.851" x2="44.5" y2="78.016" gradientUnits="userSpaceOnUse"><stop stop-color="#003CA7"/><stop offset="1" stop-color="#00B7FF"/></linearGradient></defs></svg>