<svg width="83" height="76" fill="none" xmlns="http://www.w3.org/2000/svg"><path d="M79.751 66.393V48.97c0-2.616-2.147-4.745-4.785-4.745V39.48c0-2.618-2.147-4.716-4.785-4.716h-3.19V29.99c0-2.618-2.147-4.716-4.785-4.716h-3.19v-3.43c2.743-.745 4.785-3.338 4.785-6.442 0-1.801-1.297-4.446-3.857-7.86-1.217-1.621-3.83-1.621-5.047 0-2.56 3.416-3.856 6.059-3.856 7.86 0 3.103 2.041 5.696 4.785 6.443v3.429h-12.76v-9.728c2.942-.715 5.142-3.334 5.142-6.47 0-1.819-1.397-4.479-4.155-7.903-1.262-1.565-3.901-1.565-5.163 0-2.758 3.424-4.155 6.084-4.155 7.903 0 3.136 2.198 5.755 5.142 6.47v9.728h-12.76v-3.43c2.743-.745 4.785-3.338 4.785-6.442 0-1.798-1.297-4.443-3.855-7.858-1.217-1.625-3.833-1.626-5.053.001-2.557 3.414-3.854 6.059-3.854 7.857 0 3.103 2.042 5.696 4.785 6.443v3.429h-3.19c-2.638 0-4.785 2.098-4.785 4.716v4.773h-3.19c-2.638 0-4.785 2.098-4.785 4.716v4.744c-2.638 0-4.785 2.129-4.785 4.745v17.424H0v1.553c0 4.36 3.578 7.936 7.975 7.936h66.991c4.398 0 7.975-3.575 7.975-7.936v-1.553h-3.19zm-25.52-50.99c0-.807.848-2.8 3.153-5.972 2.378 3.174 3.227 5.165 3.227 5.972 0 1.94-1.43 3.517-3.19 3.517s-3.19-1.577-3.19-3.517zM37.923 9.077c0-.754.906-2.76 3.457-5.929l-1.246-.987 1.426.987c2.552 3.17 3.456 5.175 3.456 5.929 0 1.94-1.591 3.517-3.547 3.517-1.956 0-3.546-1.576-3.546-3.517zM22.33 15.403c0-.805.847-2.796 3.155-5.972 2.378 3.176 3.225 5.167 3.225 5.972 0 1.94-1.43 3.517-3.19 3.517-1.759 0-3.19-1.577-3.19-3.517zm54.231 33.566v3.191h-3.19c-2.963 0-5.44-1.581-6.154-4.744h7.75c.878 0 1.594.68 1.594 1.553zM19.141 29.99c0-.873.715-1.553 1.594-1.553h41.47c.88 0 1.596.68 1.596 1.553v4.773H19.14V29.99zm-7.976 9.489c0-.873.716-1.553 1.595-1.553h57.421c.879 0 1.595.68 1.595 1.553v4.773h-60.61V39.48zm52.41 7.936c-.714 3.163-3.19 4.744-6.154 4.744s-5.44-1.581-6.154-4.744h12.307zm-15.95 0c-.714 3.163-3.19 4.744-6.154 4.744s-5.441-1.581-6.154-4.744h12.307zm-15.951 0c-.713 3.163-3.19 4.744-6.154 4.744-2.963 0-5.44-1.581-6.153-4.744h12.307zm-23.699 0h7.749c-.713 3.163-3.19 4.744-6.154 4.744H6.38v-3.191c0-.873.716-1.553 1.595-1.553zM6.38 55.323h3.19a9.597 9.597 0 007.975-4.27A9.577 9.577 0 0025.52 55.3a9.587 9.587 0 007.976-4.26 9.581 9.581 0 007.975 4.254 9.584 9.584 0 007.975-4.256 9.583 9.583 0 007.975 4.254c3.327 0 6.26-1.68 7.975-4.24a9.597 9.597 0 007.975 4.27h3.19v4.744H6.381v-4.744zm70.181 7.907v3.163H6.381V63.23h70.18zm-1.595 9.49H7.976c-2.08 0-3.854-1.582-4.513-3.164h76.015c-.658 1.582-2.432 3.163-4.512 3.163z" fill="url(#paint0_linear_10_4911)"/><defs><linearGradient id="paint0_linear_10_4911" x1="41.471" y1="-.85" x2="41.471" y2="77.896" gradientUnits="userSpaceOnUse"><stop stop-color="#003CA7"/><stop offset="1" stop-color="#00B7FF"/></linearGradient></defs></svg>