<svg width="71" height="76" fill="none" xmlns="http://www.w3.org/2000/svg"><path d="M61.328 0c5.203 0 9.43 4.24 9.43 9.46 0 5.22-4.227 9.46-9.43 9.46a9.268 9.268 0 01-4.89-1.39c.375.968.603 2.016.603 3.11 0 2.305-1.018 4.308-2.485 5.84-.1.261-.26.497-.468.678l-13.06 11.328 8.17 6.619c.02.006.034.02.048.027a7.67 7.67 0 012.651 5.778v15.313a6.021 6.021 0 01-2.114 4.572h3.796a2.603 2.603 0 110 5.205H39.004a2.603 2.603 0 010-5.205h3.006a6.021 6.021 0 01-2.114-4.572V54.142l-6.181-5.026L17.64 65.248a6.012 6.012 0 01-4.32 1.835c-.3 0-.678-.069-1.053-.157l2.482 2.481a2.603 2.603 0 11-3.681 3.68L.762 62.782a2.602 2.602 0 113.681-3.68l3.049 3.048c-.102-.386-.172-.768-.172-1.087 0-1.7.71-3.245 1.828-4.334L24.506 41.33a8.6 8.6 0 01-1.755-5.208c0-2.748 1.413-5.065 3.409-6.63a1.78 1.78 0 01.468-.579l8.312-6.55H17.607c-2.82 0-5.143-2.332-5.143-5.16 0-2.83 2.323-5.162 5.143-5.162h30.861c1.534 0 2.947.437 4.2 1.15a9.356 9.356 0 01-.77-3.73c0-5.22 4.226-9.46 9.43-9.46zm-43.72 15.48c-.992 0-1.716.727-1.716 1.721 0 .994.724 1.72 1.715 1.72h22.29a1.717 1.717 0 011.057 3.07L29.36 31.13l.033-.638c-.06.524-.355.988-.803 1.27a5.081 5.081 0 00-2.412 4.36 5.14 5.14 0 002.278 4.3c.046.028.087.061.127.088l14.105 11.476c.402.33.636.82.636 1.337v12.9c0 1.472 1.105 2.58 2.572 2.58s2.571-1.108 2.571-2.58V50.91c0-1.142-.67-2.48-1.46-3.158l-9.731-7.888a1.696 1.696 0 01-.636-1.303 1.736 1.736 0 01.59-1.33l13.695-11.887.409 1.055a1.733 1.733 0 01.489-1.875c1.098-.954 1.788-2.304 1.788-3.883 0-2.903-2.25-5.16-5.144-5.16h-30.86zm-6.056 43.702c0 .006-.006.013-.02.026a2.553 2.553 0 00-.783 1.855c0 1.471 1.105 2.58 2.572 2.58.743 0 1.38-.303 1.849-.787.013-.013.02-.02.026-.02l15.84-15.903-4.019-3.26-15.465 15.509zM61.328 3.44c-3.369 0-6.001 2.64-6.001 6.02 0 3.38 2.632 6.02 6 6.02 3.37 0 6-2.64 6-6.02 0-3.38-2.63-6.02-6-6.02z" fill="url(#paint0_linear_10_4922)"/><defs><linearGradient id="paint0_linear_10_4922" x1="35.378" y1="-.851" x2="35.378" y2="78.016" gradientUnits="userSpaceOnUse"><stop stop-color="#003CA7"/><stop offset="1" stop-color="#00B7FF"/></linearGradient></defs></svg>